<svg id="Layer_1" data-name="Layer 1" xmlns="http://www.w3.org/2000/svg" xmlns:xlink="http://www.w3.org/1999/xlink" viewBox="0 0 1058 750"><defs><style>.cls-1{opacity:0.78;isolation:isolate;fill:url(#linear-gradient);}.cls-2{stroke:#000;}.cls-2,.cls-3{stroke-miterlimit:10;}.cls-3,.cls-5{fill:#e53935;}.cls-3{stroke:#e53935;}.cls-4{fill:#ffd62d;}</style><linearGradient id="linear-gradient" x1="51.66" y1="715.14" x2="1090.61" y2="3.07" gradientTransform="matrix(1, 0, 0, -1, -21, 748.59)" gradientUnits="userSpaceOnUse"><stop offset="0.31" stop-color="#fff"/><stop offset="1"/></linearGradient></defs><title>new-background</title><rect class="cls-1" width="1058" height="750"/><path class="cls-2" d="M203,61.38c.24-4.43-5.31-6.29-6.52-9.28.83-.86,1.74-6.18,1.51-7.86s-3.87,2.08-4.51,1.34.51-4.53-.84-6.42c-.69-1-2.26,6.19-3.44,6.73-.86.38-2.34-1.64-3.87-4.44-2.48-4.56-1.11,5.27-.87,7.15-6.6,1-10.72,5.38-12.58,11-2,6.24-7.75,20.13-18.25,20.78-12.61.8-26.68-11-33.31-17.79-3.54-3.61-6.12-14-12.3-13.19-2.8.36-5,4.31-8.27,5.16,0,0-16.79,4.15-14.53,8.66,1.33,2.65,8.67,6.14,14.28,8.49a.54.54,0,0,1,.3.63.55.55,0,0,1-.6.37c-4.8-.85-9.58-1-4.8,3.07,1.18,1,5.61,3.15,9.76,5a.51.51,0,0,1,.28.64.53.53,0,0,1-.62.35c-3.37-.82-6.42-1.18-6.24.29.42,3.32,13.2,13,13.2,13-1.62,2,5,9.12,6,10-1.51-.51-3.14.07-1,2,3.15,2.86,3.85,7.48,6.55,10.16,7.93,7.88,19.82,1.94,26,15.24.31.7,1.71,3.49,2.91,5.93a2.61,2.61,0,0,1,0,2.31,2.64,2.64,0,0,1-1.83,1.42l-7.92,1.64a2.33,2.33,0,0,0,.69,4.61l7.84-.73a.65.65,0,0,1,.56,1.07l-.63.75a2.34,2.34,0,0,0,3.59,3h0l3.3-4a2.61,2.61,0,0,1,2.57-.88l11.55,2.48a2.34,2.34,0,0,0,1.23-4.5l-10.42-3.49a2.61,2.61,0,0,1-1.72-2c-.25-1.85-.58-4.19-.81-6a2.48,2.48,0,0,1,1.74-2.69c5.3-1.58,8.13-8,11.56-12.4a10.68,10.68,0,0,1,6.29-3.88c13.66-2.78,18.3-17,19.73-32,.85-8.85-3.31-12.44-5.51-19C195.73,63.3,198.76,59.16,203,61.38Zm-15-4.93a1.85,1.85,0,1,1,1.84-1.86v0A1.83,1.83,0,0,1,188,56.45Z" transform="translate(-21 -1.41)"/><path d="M384.53,72.37a9.81,9.81,0,0,0,.12-2.65c-.32-2.9.19-5.88-.94-8.72-.57-1.45-.86-3-1.3-4.54-.06-.2-.25-.52-.39-.53-1.71-.07-1.55-1.72-2.34-2.7a5.59,5.59,0,0,1-4.77-1.3c-1.31-1-2.82-2-4.7-1.61-.16,0-.44.1-.48,0-1-1.59-2.8-.84-4.16-1.4-1-.4-2.29,0-3.44.3-1-.74-1.81,0-2.7.5a9.14,9.14,0,0,1-3.87,1.47,125.51,125.51,0,0,0-21.14,4,11.12,11.12,0,0,1-6.8.06,7,7,0,0,0-3.94,0c-1.71.52-3.64.3-5.47.44-.77.05-1.53.2-2.3.29-1.53.19-3.06.46-4.6.51-2.28.09-4.57,0-6.86,0a3.41,3.41,0,0,0-1.61.49c-3.23,2-6.67,1.87-10.18,1.14-1.53-.32-3.09-1.17-4.54-1-2.08.25-3.53-.8-5.22-1.45a2.52,2.52,0,0,0-1.81-.15c-1.45.84-2.45.3-3.44-.72-.23-.24-.58-.54-.85-.53-1.71.12-1.77-1-1.73-2.08l-5.37-1.64-.18.48,1,.5-6.06,2.25c.37,1.21-.36,1.81-1.54,2.42-.71.36-1.07,1.39-1.73,2.32-1-.13-2.22-.35-3.46-.43a4.67,4.67,0,0,0-2,.23c-3.08,1.21-3.48,2.86-1.52,5.47a2.87,2.87,0,0,1,.5,1.84c-.22,2.25,1.34,3.5,3.51,2.72l1.13-.39a5.78,5.78,0,0,1-.14,4.63c-1,2.06-2.56,3.87-3.46,6a13.26,13.26,0,0,0-.66,4.76c0,.35,1,.75,1.57,1.1,1.93,1.21,3.94,2,6.27,1.26a1.31,1.31,0,0,1,.47.14c3.26,1.44,6.49.61,9.78.12a4.93,4.93,0,0,1,3.45,1.44c2.87,2.71,5.86,5.38,7.42,9.17.52,1.27,1.09,2.55,1.49,3.87.75,2.53,1.89,4.69,4.57,5.63,0,0,.13,0,.15.07,1.38,2.72,4.61,3.2,6.45,5.32A10.78,10.78,0,0,1,299,115.4c1.14,4.1,1.92,8.29,3,12.41a22.24,22.24,0,0,1,.43,10c-.14.72-1.35,1-1.7,1.69,0,0-1.78.22-2,1.14s-1.6,2.51,1,3.31,9.25-.57,9.25-.57c2.63.23,7.43.57,8.34-.34s.11-4.94.11-4.94a4.34,4.34,0,0,1-1.55-2.1,12.88,12.88,0,0,1,1.13-9.94c1.47-2.82,1.36-5.83,2-8.74s.77-5.93,1.31-8.87a3.34,3.34,0,0,1,3.69-2.94c4.41.14,8.81.48,13.21.6a21.26,21.26,0,0,0,4.35-.57,39.06,39.06,0,0,0,7.32-1.56c1.86-.74,3.42-2.3,5-3.61s2.48-1.26,3.19.61c.85,2.21,1.3,4.58,2.14,6.79a32.82,32.82,0,0,0,2.91,6.1,13.54,13.54,0,0,1,2.58,8,70.75,70.75,0,0,1-.75,8.72c-.44,2.84-1.23,5.27-1.91,8.07-2.15.93-5,4.3-4.18,5s10.53.59,11.47,0,.52-1.93.52-1.93c.59-7.35,3.53-14.16,5.94-21.45h.47c.17.67.33,1.33.5,2h.31l.48-2.55.94.77c.37-2.18.7-4.08,1-5.83l1.14.92-1.21-3.89,2.4-3.65.59.25c-.53-3.75-1.33-7.49-1.51-11.25a56.39,56.39,0,0,1,.8-8.89c.15-1.33.47-2.64.71-4C383.15,80.26,383.87,76.32,384.53,72.37ZM308.94,139c-1.05-2-.71-3.86-.63-5.66s.45-3.52.69-5.28h.46C310.72,131.66,310.17,135.19,308.94,139Z" transform="translate(-21 -1.41)"/><path d="M617.71,77.69A1.91,1.91,0,0,0,616.37,80a7,7,0,0,1,.25,1,7.28,7.28,0,0,1,0,1.32,8,8,0,0,1-.42,1.5,7.46,7.46,0,0,1-.55,1l-.2.3-.06.07c-.12.15-.25.29-.38.43s-.34.34-.52.49l-.11.1-.14.1a7.94,7.94,0,0,1-1.1.62,8.45,8.45,0,0,1-1.64.44,9.55,9.55,0,0,1-2,0,10.78,10.78,0,0,1-2-.55A8.38,8.38,0,0,1,606,86l-.17-.11-.25-.22.54-.32a9.44,9.44,0,0,0,4.5-7.42A6.79,6.79,0,0,0,610.2,75a6.27,6.27,0,0,0-1.69-2.52,6.58,6.58,0,0,0-2.6-1.43,5.49,5.49,0,0,0-5.44,1.45,8.52,8.52,0,0,0-2,6,12.48,12.48,0,0,0,.81,4.31v.06a6.75,6.75,0,0,1-.76-.25,6.61,6.61,0,0,1-1-.57,4,4,0,0,1-.34-.23l-.4-.33c-.18-.17-.36-.35-.53-.53l-.33-.41-.06-.09a7.34,7.34,0,0,1-.66-2.52c0-.33,0-.45.37-.54a4,4,0,0,0,3-4.35,5,5,0,0,0-5.17-4.53c-.78,0-1.56.13-2.34.19a.52.52,0,0,1-.34-.09c-.61-.43-1.19-.92-1.83-1.31-2.28-1.39-4.61-2.7-6.87-4.11s-4.18-2.75-6.29-4.08a53.06,53.06,0,0,0-11-5.36,42.76,42.76,0,0,0-10.85-2.19c-2-.15-4.09-.27-6.13-.4-2.2-.14-4.4-.32-6.6-.43s-4.63-.21-6.94-.25c-3.12-.06-6.24-.06-9.37-.08s-6.2,0-9.3,0-6.07-.2-9.1-.31l-.63-.06h-2.24l-.43.06c-1.07.07-2.14.12-3.21.2a34.82,34.82,0,0,0-5.65,1,63.22,63.22,0,0,0-7.8,2.62c-3.79,1.53-7.48,3.28-11.13,5.1-1.54.76-3,1.57-4.6,2.31-2,1-4.08,1.86-6.09,2.84a76.48,76.48,0,0,0-10.79,6.38,49.21,49.21,0,0,0-5,4c-.66.62-1.28,1.27-1.92,1.9a.65.65,0,0,1-.63.26,26.07,26.07,0,0,1-5.12-1.55,3.52,3.52,0,0,1-.88-.65c-.27-.25-.45-.58-.72-.81a7.81,7.81,0,0,0-1.36-1,1.14,1.14,0,0,0-1.56.42l-.06.12a3.32,3.32,0,0,0-.25,1.12v1.36H436a.91.91,0,0,0-1,.8,1,1,0,0,0,0,.25,4,4,0,0,0,.23,1A6.61,6.61,0,0,0,436.75,80a24.7,24.7,0,0,1,2.73,3.39,6.08,6.08,0,0,0,.9,1A6.59,6.59,0,0,0,443.77,86a1.87,1.87,0,0,1,1.41.72.62.62,0,0,1,.08.33c0,.4,0,.81,0,1.21.12.9.28,1.8.46,2.69a27.44,27.44,0,0,1,.81,4.68,4.19,4.19,0,0,1-.82,3,1.7,1.7,0,0,1-1.15.72,1.52,1.52,0,0,0-1.51,1.4c0,.21-.14.3-.37.29a1.44,1.44,0,0,0-1.34.65,1.08,1.08,0,0,1-1,.42,9.89,9.89,0,0,1-1.33-.18c-1.06-.16-1.15.29-.94,1.09s.49,1.6.72,2.4a3.5,3.5,0,0,1,.13.85c0,.88-.07,1.75,0,2.62a2.57,2.57,0,0,0,2.48,2.66,2.68,2.68,0,0,0,.4,0,1.71,1.71,0,0,1,1.12.32,3.52,3.52,0,0,1,1.39,1.42c-.23.19-.47.37-.69.56a.61.61,0,0,0-.25.81.74.74,0,0,0,.16.19,4.71,4.71,0,0,0,3,1.52,9.61,9.61,0,0,0,2.62-.22,8.86,8.86,0,0,1,4.37.18,29.17,29.17,0,0,0,8,1.61,22.25,22.25,0,0,0,4-.18,17,17,0,0,0,5.32-1.59,3.19,3.19,0,0,1,2.65-.13,25.27,25.27,0,0,1,2.32,1.18,3.8,3.8,0,0,0,2.93.56c.61-.17.85,0,1.23.5a6.78,6.78,0,0,1,1,3.8v3a26.25,26.25,0,0,0,.25,2.75,2.07,2.07,0,0,1,.06.61c-.41,1.52-.83,3-1.3,4.54a5.8,5.8,0,0,1-2,3.06,4.12,4.12,0,0,0-.93,1.18c-.19.34-.36.7-.54,1.06a12.09,12.09,0,0,1-2.05,3,7,7,0,0,0,1,.47,8.79,8.79,0,0,0,6.15-.64,2.13,2.13,0,0,1,1.71-.22.93.93,0,0,0,1.15-.45,3.25,3.25,0,0,0,.33-.57c.18-.56.36-1.12.49-1.69.26-1.12.49-2.25.7-3.38a14.74,14.74,0,0,1,1.72-4.91,9.58,9.58,0,0,0,1.19-2.65c.09-.38.14-.76.21-1.15h.14a1.76,1.76,0,0,1,1.54,1.24c.21.57.35,1.17.52,1.76a4.49,4.49,0,0,0,1.5,2.48,4.74,4.74,0,0,1,1.05,1,5.94,5.94,0,0,0,4.26,2.65.72.72,0,0,1,.24.14,6.76,6.76,0,0,0,.7.49c1,.54,2.07,1.07,3.11,1.59a.24.24,0,0,0,.28-.06,3.07,3.07,0,0,0,.49-.74,4.62,4.62,0,0,0-.78-4.57,7.87,7.87,0,0,0-1-1l.37-.17c.33-.09.66-.15,1-.26a.65.65,0,0,0,.46-.8.61.61,0,0,0-.05-.12,2.78,2.78,0,0,0-1.57-1.42c-.47-.18-1-.29-1.42-.46a.71.71,0,0,1-.3-.27,9.54,9.54,0,0,0-.8-1.09,11.19,11.19,0,0,0-1.26-.91.92.92,0,0,1-.45-.69,2.17,2.17,0,0,1,1-2.17c.45-.3.91-.59,1.37-.86a7.52,7.52,0,0,0,2.83-2.77,2.57,2.57,0,0,1,1.18-1.08,18.2,18.2,0,0,0,4.69-3.22,1.46,1.46,0,0,1,.72-.44c.49-.08,1-.21,1.46-.26a28.94,28.94,0,0,1,5.66.07c1.38.14,2.76.32,4.13.49,1.8.21,3.6.45,5.4.65,1.59.17,3.18.33,4.78.42a40,40,0,0,0,5.79,0,26.31,26.31,0,0,0,4.66-.75,43,43,0,0,1,9-1.5,25.38,25.38,0,0,1,6.68.46,8.72,8.72,0,0,1,2.87,1.06.52.52,0,0,1,.27.45c.14,1.35.28,2.7.46,4a25.64,25.64,0,0,1,.42,5.1,5.53,5.53,0,0,1-.69,2.48c-1.29,2.24-2.57,4.48-3.83,6.74a11.24,11.24,0,0,0-1.37,3.39,2.25,2.25,0,0,1-.07.52c-.4.81-.81,1.61-1.25,2.39-.22.39-.51.74-.8,1.15,1,.15,1.89.31,2.81.43a10.62,10.62,0,0,0,3.73,0,3.06,3.06,0,0,0,2.44-1.9h0c.21.14.4.3.61.42a1,1,0,0,0,1.36-.38,1,1,0,0,0,.13-.52,11.69,11.69,0,0,1,.11-1.77,15.64,15.64,0,0,1,1.13-4.51,18.9,18.9,0,0,1,4.8-6.53,3.34,3.34,0,0,1,1.27-.58l1-.29a2,2,0,0,0,1.41-1.11,14.72,14.72,0,0,0,.73-2c.16-.61.2-1.26.3-1.9a2.45,2.45,0,0,1,2.07.93c.26.37.45.79.72,1.16s.69.84,1,1.26a4.74,4.74,0,0,1,.66.82,12.07,12.07,0,0,1,1,4.66c.07,1,0,2,0,3,0,1.16,0,2.32.07,3.47a2.12,2.12,0,0,1-.24,1.21c-.45.82-.92,1.62-1.38,2.43-.37.63-.32.77.42.89a12.24,12.24,0,0,0,5.35-.27,3.46,3.46,0,0,0,2.67-2.09c.23.09.44.19.67.26a.71.71,0,0,0,.88-.49.5.5,0,0,0,0-.12,3.82,3.82,0,0,0-.33-2,23.92,23.92,0,0,1-1.94-6.47,7.83,7.83,0,0,1,1.55-6A1.62,1.62,0,0,0,588,122a.54.54,0,0,1,.13-.54,2.87,2.87,0,0,0,.57-2.57,12.36,12.36,0,0,0-.9-2,10.82,10.82,0,0,1-1.4-3.41,1,1,0,0,1,0-.58c1.23-2.1,2.49-4.18,3.73-6.28a25.48,25.48,0,0,0,2.73-5.54c.6-2,1.08-4,1.66-5.91a35.4,35.4,0,0,0,1.4-9.32A9.75,9.75,0,0,0,601.29,87c.19.24.39.47.6.7a11.81,11.81,0,0,0,4.75,3.08,10.52,10.52,0,0,0,10.56-2A9.48,9.48,0,0,0,620.06,79,1.93,1.93,0,0,0,617.71,77.69ZM605.1,81.25c-.15.14-.3.28-.46.41l-.1.08-.32.21a9.48,9.48,0,0,1-1,.52,3.78,3.78,0,0,1-.17-.35,12.63,12.63,0,0,1-.76-2.77,9.31,9.31,0,0,1,0-2.11,6.77,6.77,0,0,1,.35-1.32,4.23,4.23,0,0,1,.25-.47,1.27,1.27,0,0,1,.13-.19l.07-.08a3.7,3.7,0,0,1,.28-.28,2.88,2.88,0,0,1,.38-.22,2.42,2.42,0,0,1,.36-.1,3.69,3.69,0,0,1,.47,0,4.24,4.24,0,0,1,.61.17,2.87,2.87,0,0,1,.48.28l.1.06.2.18a2.44,2.44,0,0,1,.27.29,3.6,3.6,0,0,1,.31.54,5.09,5.09,0,0,1,.23.85,7,7,0,0,1,0,1.12,8,8,0,0,1-.35,1.27,7.19,7.19,0,0,1-.66,1.14l-.11.15-.12.14A4.9,4.9,0,0,1,605.1,81.25Z" transform="translate(-21 -1.41)"/><path class="cls-3" d="M760,61.38c.24-4.43-5.31-6.29-6.52-9.28.83-.86,1.74-6.18,1.51-7.86s-3.87,2.08-4.51,1.34.51-4.53-.84-6.42c-.69-1-2.26,6.19-3.44,6.73-.86.38-2.34-1.64-3.87-4.44-2.48-4.56-1.11,5.27-.87,7.15-6.6,1-10.72,5.38-12.58,11-2,6.24-7.75,20.13-18.25,20.78-12.61.8-26.68-11-33.31-17.79-3.54-3.61-6.12-14-12.3-13.19-2.8.36-5,4.31-8.27,5.16,0,0-16.79,4.15-14.53,8.66,1.33,2.65,8.67,6.14,14.28,8.49a.54.54,0,0,1,.3.63.55.55,0,0,1-.6.37c-4.8-.85-9.58-1-4.8,3.07,1.18,1,5.61,3.15,9.76,5a.51.51,0,0,1,.28.64.53.53,0,0,1-.62.35c-3.37-.82-6.42-1.18-6.24.29.42,3.32,13.2,13,13.2,13-1.62,2,5,9.12,6,10-1.51-.51-3.14.07-1,2,3.15,2.86,3.85,7.48,6.55,10.16,7.93,7.88,19.82,1.94,25.95,15.24.31.7,1.71,3.49,2.91,5.93a2.61,2.61,0,0,1,0,2.31,2.64,2.64,0,0,1-1.83,1.42l-7.92,1.64a2.33,2.33,0,1,0,.69,4.61l7.84-.73a.65.65,0,0,1,.56,1.07l-.63.75a2.34,2.34,0,1,0,3.59,3h0l3.3-4a2.61,2.61,0,0,1,2.57-.88l11.55,2.48a2.34,2.34,0,0,0,1.23-4.5l-10.42-3.49a2.61,2.61,0,0,1-1.72-2c-.25-1.85-.58-4.19-.81-6a2.48,2.48,0,0,1,1.74-2.69c5.3-1.58,8.13-8,11.56-12.4a10.68,10.68,0,0,1,6.29-3.88c13.66-2.78,18.3-17,19.73-32,.85-8.85-3.31-12.44-5.51-19C752.73,63.3,755.76,59.16,760,61.38Zm-15-4.93a1.85,1.85,0,1,1,1.84-1.86v0A1.83,1.83,0,0,1,745,56.45Z" transform="translate(-21 -1.41)"/><path class="cls-2" d="M789,353.38c.24-4.43-5.31-6.29-6.52-9.28.83-.86,1.74-6.18,1.51-7.86s-3.87,2.08-4.51,1.34.51-4.53-.84-6.42c-.69-1-2.26,6.19-3.44,6.73-.86.38-2.34-1.64-3.87-4.44-2.48-4.56-1.11,5.27-.87,7.15-6.6,1-10.72,5.38-12.58,11-2,6.24-7.75,20.13-18.25,20.78-12.61.8-26.68-11-33.31-17.79-3.54-3.61-6.12-14-12.3-13.19-2.8.36-5,4.31-8.27,5.16,0,0-16.79,4.15-14.53,8.66,1.33,2.65,8.67,6.14,14.28,8.49a.54.54,0,0,1,.3.63.55.55,0,0,1-.6.37c-4.8-.85-9.58-1-4.8,3.07,1.18,1,5.61,3.15,9.76,5.05a.51.51,0,0,1,.28.64.53.53,0,0,1-.62.35c-3.37-.82-6.42-1.18-6.24.29.42,3.32,13.2,13,13.2,13-1.62,2,5,9.12,6,10-1.51-.51-3.14.07-1,2,3.15,2.86,3.85,7.48,6.55,10.16,7.93,7.88,19.82,1.94,25.95,15.24.31.7,1.71,3.49,2.91,5.93a2.61,2.61,0,0,1,0,2.31,2.64,2.64,0,0,1-1.83,1.42l-7.92,1.64a2.33,2.33,0,1,0,.69,4.61h0l7.84-.73a.65.65,0,0,1,.56,1.07l-.63.75a2.34,2.34,0,1,0,3.59,3l3.3-4a2.61,2.61,0,0,1,2.57-.88l11.55,2.48a2.34,2.34,0,0,0,1.23-4.5l-10.42-3.49a2.6,2.6,0,0,1-1.72-2c-.25-1.85-.58-4.19-.81-6a2.48,2.48,0,0,1,1.74-2.69c5.3-1.58,8.13-8.05,11.56-12.4a10.68,10.68,0,0,1,6.29-3.88c13.66-2.78,18.3-17,19.73-32,.85-8.85-3.31-12.44-5.51-19C781.73,355.3,784.76,351.16,789,353.38Zm-15-4.93a1.85,1.85,0,1,1,1.84-1.86v0a1.83,1.83,0,0,1-1.82,1.84Z" transform="translate(-21 -1.41)"/><path class="cls-2" d="M390,202.38c.24-4.43-5.31-6.29-6.52-9.28.83-.86,1.74-6.18,1.51-7.86s-3.87,2.08-4.51,1.34.51-4.53-.84-6.42c-.69-1-2.26,6.19-3.44,6.73-.86.38-2.34-1.64-3.87-4.44-2.48-4.56-1.11,5.27-.87,7.15-6.6,1-10.72,5.38-12.58,11.05-2.05,6.24-7.75,20.13-18.25,20.78-12.61.8-26.68-11-33.31-17.79-3.54-3.61-6.12-14-12.3-13.19-2.8.36-5,4.31-8.27,5.16,0,0-16.79,4.15-14.53,8.66,1.33,2.65,8.67,6.14,14.28,8.49a.54.54,0,0,1,.3.63.55.55,0,0,1-.6.37c-4.8-.85-9.58-1-4.8,3.07,1.18,1,5.61,3.15,9.76,5a.51.51,0,0,1,.28.64.53.53,0,0,1-.62.35c-3.37-.82-6.42-1.18-6.24.29.42,3.32,13.2,13,13.2,13-1.62,2,5,9.12,6,10-1.51-.51-3.14.07-1,2,3.15,2.86,3.85,7.48,6.55,10.16,7.93,7.88,19.82,1.94,26,15.24.31.7,1.71,3.49,2.91,5.93a2.61,2.61,0,0,1,0,2.31,2.64,2.64,0,0,1-1.83,1.42l-7.92,1.64a2.33,2.33,0,0,0,.69,4.61h0l7.84-.73a.65.65,0,0,1,.56,1.07l-.63.75a2.34,2.34,0,0,0,3.59,3h0l3.3-4a2.61,2.61,0,0,1,2.57-.88L358,291.11a2.34,2.34,0,0,0,1.23-4.5l-10.42-3.49a2.59,2.59,0,0,1-1.77-2c-.25-1.85-.58-4.19-.81-6a2.48,2.48,0,0,1,1.74-2.69c5.3-1.58,8.13-8.05,11.56-12.4a10.68,10.68,0,0,1,6.29-3.88c13.66-2.78,18.3-17,19.73-32,.85-8.85-3.31-12.44-5.51-19C382.73,204.3,385.76,200.16,390,202.38Zm-15-4.93a1.85,1.85,0,1,1,1.84-1.86v0a1.83,1.83,0,0,1-1.82,1.84Z" transform="translate(-21 -1.41)"/><path class="cls-2" d="M378,504.38c.24-4.43-5.31-6.29-6.52-9.28.83-.86,1.74-6.18,1.51-7.86s-3.87,2.08-4.51,1.34.51-4.53-.84-6.42c-.69-1-2.26,6.19-3.44,6.73-.86.38-2.34-1.64-3.87-4.44-2.48-4.56-1.11,5.27-.87,7.15-6.6,1-10.72,5.38-12.58,11-2.05,6.24-7.75,20.13-18.25,20.78-12.61.8-26.68-11-33.31-17.79-3.54-3.61-6.12-14-12.3-13.19-2.8.36-5,4.31-8.27,5.16,0,0-16.79,4.15-14.53,8.66,1.33,2.65,8.67,6.14,14.28,8.49a.54.54,0,0,1,.3.63.55.55,0,0,1-.6.37c-4.8-.85-9.58-1-4.8,3.07,1.18,1,5.61,3.15,9.76,5a.51.51,0,0,1,.28.64.53.53,0,0,1-.62.35c-3.37-.82-6.42-1.18-6.24.29.42,3.32,13.2,13,13.2,13-1.62,2,5,9.12,6,10-1.51-.51-3.14.07-1,2,3.15,2.86,3.85,7.48,6.55,10.16,7.93,7.88,19.82,1.94,26,15.24.31.7,1.71,3.49,2.91,5.93a2.61,2.61,0,0,1,0,2.31,2.64,2.64,0,0,1-1.83,1.42l-7.92,1.64a2.33,2.33,0,1,0,.69,4.61l7.84-.73a.65.65,0,0,1,.56,1.07l-.63.75a2.34,2.34,0,0,0,3.59,3h0l3.3-4a2.61,2.61,0,0,1,2.57-.88L346,593.06a2.34,2.34,0,0,0,1.23-4.5l-10.42-3.49a2.63,2.63,0,0,1-1.77-2c-.25-1.85-.58-4.19-.81-6a2.48,2.48,0,0,1,1.74-2.69c5.3-1.58,8.13-8,11.56-12.4a10.68,10.68,0,0,1,6.29-3.88c13.66-2.78,18.3-17,19.73-32,.85-8.85-3.31-12.44-5.51-19C370.73,506.3,373.76,502.16,378,504.38Zm-15-4.93a1.85,1.85,0,1,1,1.84-1.86v0a1.83,1.83,0,0,1-1.82,1.84Z" transform="translate(-21 -1.41)"/><path class="cls-2" d="M470,205.13c-2.2,6.59-6.36,10.18-5.51,19,1.44,15,6.07,29.2,19.73,32a10.68,10.68,0,0,1,6.29,3.88c3.44,4.35,6.27,10.82,11.56,12.4a2.48,2.48,0,0,1,1.74,2.69c-.23,1.8-.56,4.14-.81,6a2.61,2.61,0,0,1-1.77,2.14l-10.42,3.49a2.34,2.34,0,0,0,1.23,4.5l11.55-2.48a2.63,2.63,0,0,1,2.58.88l3.29,4a2.34,2.34,0,1,0,3.59-3h0l-.62-.75a.63.63,0,0,1-.08-.73.65.65,0,0,1,.64-.34l7.84.73a2.33,2.33,0,1,0,.69-4.61h0l-7.93-1.64a2.63,2.63,0,0,1-2-3.11,2.39,2.39,0,0,1,.21-.62c1.2-2.44,2.6-5.23,2.92-5.93,6.12-13.3,18-7.36,25.94-15.24,2.7-2.68,3.4-7.3,6.55-10.16,2.15-1.94.52-2.52-1-2,1-.9,7.64-8,6-10,0,0,12.78-9.72,13.2-13,.19-1.47-2.87-1.11-6.23-.29a.54.54,0,0,1-.63-.35.52.52,0,0,1,.28-.64c4.16-1.9,8.59-4,9.77-5,4.77-4.1,0-3.92-4.81-3.07a.55.55,0,0,1-.6-.37.52.52,0,0,1,.31-.63c5.6-2.35,12.94-5.84,14.27-8.49,2.27-4.51-14.53-8.66-14.53-8.66-3.27-.85-5.47-4.8-8.26-5.16-6.19-.81-8.77,9.58-12.3,13.19-6.64,6.79-20.71,18.59-33.32,17.79-10.5-.65-16.2-14.54-18.25-20.78-1.85-5.67-6-10-12.57-11.05.23-1.88,1.61-11.71-.88-7.15-1.52,2.8-3,4.82-3.87,4.44-1.18-.54-2.75-7.7-3.43-6.73-1.35,1.89-.11,5.57-.84,6.42s-4.29-3-4.52-1.34.69,7,1.51,7.86c-1.2,3-6.76,4.85-6.51,9.28C464.24,200.16,467.27,204.3,470,205.13Zm3.17-9.52a1.81,1.81,0,0,1,1.79-1.85H475a1.85,1.85,0,1,1-1.84,1.86Z" transform="translate(-21 -1.41)"/><path class="cls-2" d="M94.78,653.16c-2.46,6.5-6.76,9.92-6.26,18.81.85,15,4.93,29.41,18.47,32.72a10.67,10.67,0,0,1,6.13,4.12c3.26,4.49,5.84,11.06,11.07,12.85a2.49,2.49,0,0,1,1.63,2.76c-.3,1.78-.72,4.11-1,6a2.62,2.62,0,0,1-1.85,2.07l-10.55,3.07a2.34,2.34,0,0,0,1,4.55l11.64-2a2.62,2.62,0,0,1,2.54,1l3.14,4.1a2.33,2.33,0,1,0,3.7-2.84h0l-.6-.77a.65.65,0,0,1,.6-1l7.81,1a2.33,2.33,0,0,0,.87-4.58h0l-7.9-2a2.63,2.63,0,0,1-1.68-3.8c1.3-2.39,2.8-5.13,3.15-5.81,6.64-13,18.29-6.65,26.52-14.21,2.8-2.57,3.68-7.16,6.94-9.9,2.22-1.85.61-2.49-.92-2,1.09-.85,7.95-7.72,6.41-9.77,0,0,13.15-9.22,13.69-12.51.25-1.46-2.82-1.23-6.21-.55a.52.52,0,0,1-.3-1c4.22-1.73,8.73-3.69,9.95-4.66,4.93-3.91.15-3.92-4.69-3.25a.53.53,0,0,1-.58-.4.51.51,0,0,1,.33-.61c5.69-2.14,13.16-5.33,14.6-7.93,2.44-4.42-14.18-9.22-14.18-9.22-3.24-1-5.28-5-8.06-5.48-6.15-1-9.14,9.23-12.81,12.7-6.89,6.52-21.41,17.76-34,16.47-10.43-1.14-15.6-15.24-17.43-21.56-1.64-5.74-5.59-10.27-12.14-11.53.31-1.87,2.07-11.64-.6-7.17-1.63,2.73-3.19,4.69-4,4.27-1.16-.58-2.45-7.79-3.17-6.85-1.42,1.84-.33,5.56-1.09,6.38s-4.17-3.12-4.46-1.51.41,7,1.2,7.9c-1.32,3-6.95,4.59-6.87,9C89.18,648,92.05,652.22,94.78,653.16Zm3.54-9.39a1.84,1.84,0,1,1,1.77,1.91h0a1.82,1.82,0,0,1-1.76-1.88v0Z" transform="translate(-21 -1.41)"/><path class="cls-3" d="M875,497.13c-2.2,6.59-6.36,10.18-5.51,19,1.44,15,6.07,29.2,19.73,32a10.68,10.68,0,0,1,6.29,3.88c3.44,4.35,6.27,10.82,11.56,12.4a2.48,2.48,0,0,1,1.74,2.69c-.23,1.8-.56,4.14-.81,6a2.61,2.61,0,0,1-1.77,2.14l-10.42,3.49a2.34,2.34,0,0,0,1.23,4.5l11.55-2.48a2.63,2.63,0,0,1,2.58.88l3.29,4a2.34,2.34,0,1,0,3.59-3l-.62-.75a.63.63,0,0,1-.08-.73.65.65,0,0,1,.64-.34l7.84.73a2.33,2.33,0,0,0,.69-4.61l-7.93-1.64a2.63,2.63,0,0,1-2-3.11,2.39,2.39,0,0,1,.21-.62c1.2-2.44,2.6-5.23,2.92-5.93,6.12-13.3,18-7.36,25.94-15.24,2.7-2.68,3.4-7.3,6.55-10.16,2.15-1.94.52-2.52-1-2,1-.9,7.64-8,6-10,0,0,12.78-9.72,13.2-13,.19-1.47-2.87-1.11-6.23-.29a.54.54,0,0,1-.63-.35.52.52,0,0,1,.28-.64c4.16-1.9,8.59-4,9.77-5.05,4.77-4.1,0-3.92-4.81-3.07a.55.55,0,0,1-.6-.37.52.52,0,0,1,.31-.63c5.6-2.35,12.94-5.84,14.27-8.49,2.27-4.51-14.53-8.66-14.53-8.66-3.27-.85-5.47-4.8-8.26-5.16-6.19-.81-8.77,9.58-12.3,13.19-6.64,6.79-20.71,18.59-33.32,17.79-10.5-.65-16.2-14.54-18.25-20.78-1.85-5.67-6-10-12.57-11,.23-1.88,1.61-11.71-.88-7.15-1.52,2.8-3,4.82-3.87,4.44-1.18-.54-2.75-7.7-3.43-6.73-1.35,1.89-.11,5.57-.84,6.42s-4.29-2.95-4.52-1.34.69,7,1.51,7.86c-1.2,3-6.76,4.85-6.51,9.28C869.24,492.16,872.27,496.3,875,497.13Zm3.17-9.52a1.81,1.81,0,0,1,1.79-1.85h0a1.85,1.85,0,1,1-1.84,1.86Z" transform="translate(-21 -1.41)"/><path class="cls-2" d="M766,643.38c.24-4.43-5.31-6.29-6.52-9.28.83-.86,1.74-6.18,1.51-7.86s-3.87,2.08-4.51,1.34.51-4.53-.84-6.42c-.69-1-2.26,6.19-3.44,6.73-.86.38-2.34-1.64-3.87-4.44-2.48-4.56-1.11,5.27-.87,7.15-6.6,1-10.72,5.38-12.58,11-2,6.24-7.75,20.13-18.25,20.78-12.61.8-26.68-11-33.31-17.79-3.54-3.61-6.12-14-12.3-13.19-2.8.36-5,4.31-8.27,5.16,0,0-16.79,4.15-14.53,8.66,1.33,2.65,8.67,6.14,14.28,8.49a.54.54,0,0,1,.3.63.55.55,0,0,1-.6.37c-4.8-.85-9.58-1-4.8,3.07,1.18,1,5.61,3.15,9.76,5a.51.51,0,0,1,.28.64.53.53,0,0,1-.62.35c-3.37-.82-6.42-1.18-6.24.29.42,3.32,13.2,13,13.2,13-1.62,2,5,9.12,6,10-1.51-.51-3.14.07-1,2,3.15,2.86,3.85,7.48,6.55,10.16,7.93,7.88,19.82,1.94,25.95,15.24.31.7,1.71,3.49,2.91,5.93a2.61,2.61,0,0,1,0,2.31,2.64,2.64,0,0,1-1.83,1.42l-7.92,1.64a2.33,2.33,0,0,0,.69,4.61h0l7.84-.73a.65.65,0,0,1,.56,1.07l-.63.75a2.34,2.34,0,0,0,3.59,3h0l3.3-4a2.61,2.61,0,0,1,2.57-.88l11.55,2.48a2.34,2.34,0,0,0,1.23-4.5l-10.42-3.49a2.61,2.61,0,0,1-1.72-2c-.25-1.85-.58-4.19-.81-6a2.48,2.48,0,0,1,1.74-2.69c5.3-1.58,8.13-8,11.56-12.4a10.68,10.68,0,0,1,6.29-3.88c13.66-2.78,18.3-17,19.73-32,.85-8.85-3.31-12.44-5.51-19C758.73,645.3,761.76,641.16,766,643.38Zm-15-4.93a1.85,1.85,0,1,1,1.84-1.86v0a1.83,1.83,0,0,1-1.82,1.84Z" transform="translate(-21 -1.41)"/><path d="M82.24,517.21c.24,1.32.56,2.63.71,4a56.39,56.39,0,0,1,.8,8.89c-.18,3.76-1,7.5-1.51,11.25l.6-.25,2.39,3.65L84,548.6l1.14-.92c.3,1.75.63,3.65,1,5.83l.94-.77.48,2.55h.31c.17-.67.33-1.33.5-2h.47c2.41,7.29,5.35,14.1,5.94,21.45,0,0-.42,1.33.52,1.93s10.62.68,11.48,0-2-4.06-4.19-5c-.68-2.8-1.47-5.23-1.91-8.07a70.75,70.75,0,0,1-.75-8.72,13.54,13.54,0,0,1,2.58-8,31.91,31.91,0,0,0,2.91-6.1c.84-2.21,1.3-4.58,2.14-6.79.71-1.87,1.62-1.9,3.19-.61s3.16,2.87,5,3.61c2.29.91,4.86,1.11,7.32,1.56a21.26,21.26,0,0,0,4.35.57c4.4-.12,8.8-.46,13.21-.6a3.34,3.34,0,0,1,3.69,2.94c.54,2.94.68,6,1.31,8.87s.52,5.92,2,8.74a12.92,12.92,0,0,1,1.12,9.94,4.23,4.23,0,0,1-1.56,2.07s-.8,4,.11,4.94,5.71.57,8.34.34c0,0,6.63,1.37,9.25.57s1.26-2.4,1-3.31-2-1.14-2-1.14c-.35-.67-1.56-1-1.7-1.69a22.38,22.38,0,0,1,.43-10c1.08-4.12,1.86-8.31,3-12.41a10.62,10.62,0,0,1,2.3-3.93c1.84-2.12,5.07-2.6,6.46-5.32a.21.21,0,0,0,.15-.07c2.67-.94,3.82-3.1,4.57-5.63a37.69,37.69,0,0,1,1.49-3.87c1.55-3.79,4.54-6.46,7.41-9.17a4.93,4.93,0,0,1,3.45-1.44c3.3.49,6.53,1.32,9.78-.12.15-.07.34-.18.47-.14,2.33.75,4.34,0,6.27-1.26.57-.35,1.58-.75,1.57-1.1a13.26,13.26,0,0,0-.66-4.76c-.9-2.1-2.43-3.91-3.46-6a5.78,5.78,0,0,1-.14-4.63l1.13.39c2.17.78,3.73-.47,3.51-2.72a2.87,2.87,0,0,1,.5-1.84c2-2.61,1.56-4.26-1.52-5.47a4.67,4.67,0,0,0-2-.23c-1.23.08-2.46.3-3.46.43-.66-.93-1-2-1.73-2.32-1.18-.61-1.91-1.21-1.54-2.42l-6-2.25,1-.5c-.06-.16-.12-.32-.17-.48l-5.38,1.64c0,1.09,0,2.2-1.73,2.08a1.52,1.52,0,0,0-.85.53c-1,1-2,1.56-3.43.72a2.52,2.52,0,0,0-1.81.15c-1.7.65-3.15,1.7-5.23,1.45-1.45-.18-3,.67-4.53,1-3.51.73-7,.86-10.18-1.14a3.56,3.56,0,0,0-1.62-.49c-2.29-.05-4.58,0-6.86-.05-1.54-.05-3.07-.32-4.6-.51-.76-.09-1.53-.24-2.29-.29-1.84-.14-3.77.08-5.48-.44a7,7,0,0,0-3.94,0,11.09,11.09,0,0,1-6.79-.06,126.51,126.51,0,0,0-21.14-4,9.18,9.18,0,0,1-3.88-1.47c-.89-.55-1.7-1.24-2.7-.5-1.15-.3-2.46-.7-3.44-.3-1.36.56-3.17-.19-4.16,1.4,0,.06-.32,0-.48,0-1.88-.39-3.39.63-4.7,1.61a5.53,5.53,0,0,1-4.77,1.3c-.79,1-.62,2.63-2.33,2.7-.15,0-.34.33-.4.53-.44,1.51-.72,3.09-1.3,4.54-1.13,2.84-.62,5.82-.93,8.72a9.42,9.42,0,0,0,.11,2.65C80.82,509.32,81.54,513.26,82.24,517.21Zm73,43.88h.45c.25,1.76.62,3.51.7,5.28s.41,3.7-.64,5.66c-1.23-3.84-1.75-7.37-.51-10.94Z" transform="translate(-21 -1.41)"/><path class="cls-4" d="M89.24,232.21c.24,1.32.56,2.63.71,4a56.39,56.39,0,0,1,.8,8.89c-.18,3.76-1,7.5-1.51,11.25l.6-.25,2.39,3.65L91,263.6l1.14-.92c.3,1.75.63,3.65,1,5.83l.94-.77.48,2.55h.31c.17-.67.33-1.33.5-2h.47c2.41,7.29,5.35,14.1,5.94,21.45,0,0-.42,1.33.52,1.93s10.62.68,11.48,0-2-4.06-4.19-5c-.68-2.8-1.47-5.23-1.91-8.07a70.75,70.75,0,0,1-.75-8.72,13.54,13.54,0,0,1,2.58-8,31.91,31.91,0,0,0,2.91-6.1c.84-2.21,1.3-4.58,2.14-6.79.71-1.87,1.62-1.9,3.19-.61s3.16,2.87,5,3.61c2.29.91,4.86,1.11,7.32,1.56a21.26,21.26,0,0,0,4.35.57c4.4-.12,8.8-.46,13.21-.6a3.34,3.34,0,0,1,3.69,2.94c.54,2.94.68,6,1.31,8.87s.52,5.92,2,8.74a12.92,12.92,0,0,1,1.12,9.94,4.23,4.23,0,0,1-1.56,2.07s-.8,4,.11,4.94,5.71.57,8.34.34c0,0,6.63,1.37,9.25.57s1.26-2.4,1-3.31-2-1.14-2-1.14c-.35-.67-1.56-1-1.7-1.69a22.38,22.38,0,0,1,.43-10c1.08-4.12,1.86-8.31,3-12.41a10.62,10.62,0,0,1,2.3-3.93c1.84-2.12,5.07-2.6,6.46-5.32l.15-.07c2.67-.94,3.82-3.1,4.57-5.63a37.69,37.69,0,0,1,1.49-3.87c1.55-3.79,4.54-6.46,7.41-9.17a4.93,4.93,0,0,1,3.45-1.44c3.3.49,6.53,1.32,9.78-.12.15-.07.34-.18.47-.14,2.33.75,4.34-.05,6.27-1.26.57-.35,1.58-.75,1.57-1.1a13.26,13.26,0,0,0-.66-4.76c-.9-2.1-2.43-3.91-3.46-6a5.78,5.78,0,0,1-.14-4.63l1.13.39c2.17.78,3.73-.47,3.51-2.72a2.87,2.87,0,0,1,.5-1.84c2-2.61,1.56-4.26-1.52-5.47a4.67,4.67,0,0,0-2-.23c-1.23.08-2.46.3-3.46.43-.66-.93-1-2-1.73-2.32-1.18-.61-1.91-1.21-1.54-2.42l-6-2.25,1-.5c-.06-.16-.12-.32-.17-.48l-5.38,1.64c0,1.09,0,2.2-1.73,2.08a1.52,1.52,0,0,0-.85.53c-1,1-2,1.56-3.43.72a2.52,2.52,0,0,0-1.81.15c-1.7.65-3.15,1.7-5.23,1.45-1.45-.18-3,.67-4.53,1-3.51.73-7,.86-10.18-1.14a3.56,3.56,0,0,0-1.62-.49h-6.86c-1.54-.05-3.07-.32-4.6-.51-.76-.09-1.53-.24-2.29-.29-1.84-.14-3.77.08-5.48-.44a7,7,0,0,0-3.94,0,11.09,11.09,0,0,1-6.79-.06,126.51,126.51,0,0,0-21.14-4,9.18,9.18,0,0,1-3.88-1.47c-.89-.55-1.7-1.24-2.7-.5-1.15-.3-2.46-.7-3.44-.3-1.36.56-3.17-.19-4.16,1.4,0,.06-.32,0-.48,0-1.88-.39-3.39.63-4.7,1.61a5.53,5.53,0,0,1-4.77,1.3c-.79,1-.62,2.63-2.33,2.7-.15,0-.34.33-.4.53-.44,1.51-.72,3.09-1.3,4.54-1.13,2.84-.62,5.82-.93,8.72a9.42,9.42,0,0,0,.11,2.65C87.82,224.32,88.54,228.26,89.24,232.21Zm73,43.88h.45c.25,1.76.62,3.51.7,5.28s.41,3.7-.64,5.66c-1.23-3.84-1.75-7.37-.51-10.94Z" transform="translate(-21 -1.41)"/><path d="M867.24,223.21c.24,1.32.56,2.63.71,4a56.39,56.39,0,0,1,.8,8.89c-.18,3.76-1,7.5-1.51,11.25l.6-.25,2.39,3.65L869,254.6l1.14-.92c.3,1.75.63,3.65,1,5.83l.94-.77.48,2.55h.31l.5-2h.47c2.41,7.29,5.35,14.1,5.94,21.45,0,0-.42,1.33.52,1.93s10.62.68,11.48,0-2-4.06-4.19-5c-.68-2.8-1.47-5.23-1.91-8.07a70.75,70.75,0,0,1-.75-8.72,13.54,13.54,0,0,1,2.58-8,31.91,31.91,0,0,0,2.91-6.1c.84-2.21,1.3-4.58,2.14-6.79.71-1.87,1.62-1.9,3.19-.61s3.16,2.87,5,3.61c2.29.91,4.86,1.11,7.32,1.56a21.26,21.26,0,0,0,4.35.57c4.4-.12,8.8-.46,13.21-.6a3.34,3.34,0,0,1,3.69,2.94c.54,2.94.68,6,1.31,8.87s.52,5.92,2,8.74a12.92,12.92,0,0,1,1.12,9.94,4.23,4.23,0,0,1-1.56,2.07s-.8,4,.11,4.94,5.71.57,8.34.34c0,0,6.63,1.37,9.25.57s1.26-2.4,1-3.31-2-1.14-2-1.14c-.35-.67-1.56-1-1.7-1.69a22.38,22.38,0,0,1,.43-10c1.08-4.12,1.86-8.31,3-12.41a10.62,10.62,0,0,1,2.3-3.93c1.84-2.12,5.07-2.6,6.46-5.32l.15-.07c2.67-.94,3.82-3.1,4.57-5.63a37.69,37.69,0,0,1,1.49-3.87c1.55-3.79,4.54-6.46,7.41-9.17a4.93,4.93,0,0,1,3.45-1.44c3.3.49,6.53,1.32,9.78-.12.15-.07.34-.18.47-.14,2.33.75,4.34-.05,6.27-1.26.57-.35,1.58-.75,1.57-1.1a13.26,13.26,0,0,0-.66-4.76c-.9-2.1-2.43-3.91-3.46-6a5.78,5.78,0,0,1-.14-4.63l1.13.39c2.17.78,3.73-.47,3.51-2.72a2.87,2.87,0,0,1,.5-1.84c2-2.61,1.56-4.26-1.52-5.47a4.67,4.67,0,0,0-2-.23c-1.23.08-2.46.3-3.46.43-.66-.93-1-2-1.73-2.32-1.18-.61-1.91-1.21-1.54-2.42l-6-2.25,1-.5c-.06-.16-.12-.32-.17-.48l-5.38,1.64c0,1.09,0,2.2-1.73,2.08a1.52,1.52,0,0,0-.85.53c-1,1-2,1.56-3.43.72a2.52,2.52,0,0,0-1.81.15c-1.7.65-3.15,1.7-5.23,1.45-1.45-.18-3,.67-4.53,1-3.51.73-7,.86-10.18-1.14a3.56,3.56,0,0,0-1.62-.49h-6.86c-1.54-.05-3.07-.32-4.6-.51-.76-.09-1.53-.24-2.29-.29-1.84-.14-3.77.08-5.48-.44a7,7,0,0,0-3.94,0,11.09,11.09,0,0,1-6.79-.06,126.51,126.51,0,0,0-21.14-4,9.18,9.18,0,0,1-3.88-1.47c-.89-.55-1.7-1.24-2.7-.5-1.15-.3-2.46-.7-3.44-.3-1.36.56-3.17-.19-4.16,1.4,0,.06-.32,0-.48,0-1.88-.39-3.39.63-4.7,1.61a5.53,5.53,0,0,1-4.77,1.3c-.79,1-.62,2.63-2.33,2.7-.15,0-.34.33-.4.53-.44,1.51-.72,3.09-1.3,4.54-1.13,2.84-.62,5.82-.93,8.72a9.42,9.42,0,0,0,.11,2.65C865.82,215.32,866.54,219.26,867.24,223.21Zm73,43.88h.45c.25,1.76.62,3.51.7,5.28s.41,3.7-.64,5.66C939.52,274.19,939,270.66,940.24,267.09Z" transform="translate(-21 -1.41)"/><path d="M281.24,384.21c.24,1.32.56,2.63.71,4a56.39,56.39,0,0,1,.8,8.89c-.18,3.76-1,7.5-1.51,11.25l.6-.25,2.39,3.65L283,415.6l1.14-.92c.3,1.75.63,3.65,1,5.83l.94-.77.48,2.55h.31c.17-.67.33-1.33.5-2h.47c2.41,7.29,5.35,14.1,5.94,21.45,0,0-.42,1.33.52,1.93s10.62.68,11.48,0-2-4.06-4.19-5c-.68-2.8-1.47-5.23-1.91-8.07a70.75,70.75,0,0,1-.75-8.72,13.54,13.54,0,0,1,2.58-8,31.91,31.91,0,0,0,2.91-6.1c.84-2.21,1.3-4.58,2.14-6.79.71-1.87,1.62-1.9,3.19-.61s3.16,2.87,5,3.61c2.29.91,4.86,1.11,7.32,1.56a21.26,21.26,0,0,0,4.35.57c4.4-.12,8.8-.46,13.21-.6a3.34,3.34,0,0,1,3.69,2.94c.54,2.94.68,6,1.31,8.87s.52,5.92,2,8.74a12.92,12.92,0,0,1,1.12,9.94,4.23,4.23,0,0,1-1.56,2.07s-.8,4,.11,4.94,5.71.57,8.34.34c0,0,6.63,1.37,9.25.57s1.26-2.4,1-3.31-2-1.14-2-1.14c-.35-.67-1.56-1-1.7-1.69a22.38,22.38,0,0,1,.43-10c1.08-4.12,1.86-8.31,3-12.41a10.62,10.62,0,0,1,2.3-3.93c1.84-2.12,5.07-2.6,6.46-5.32l.15-.07c2.67-.94,3.82-3.1,4.57-5.63a37.69,37.69,0,0,1,1.49-3.87c1.55-3.79,4.54-6.46,7.41-9.17a4.93,4.93,0,0,1,3.45-1.44c3.3.49,6.53,1.32,9.78-.12.15-.07.34-.18.47-.14,2.33.75,4.34-.05,6.27-1.26.57-.35,1.58-.75,1.57-1.1a13.26,13.26,0,0,0-.66-4.76c-.9-2.1-2.43-3.91-3.46-6a5.78,5.78,0,0,1-.14-4.63l1.13.39c2.17.78,3.73-.47,3.51-2.72a2.87,2.87,0,0,1,.5-1.84c2-2.61,1.56-4.26-1.52-5.47a4.67,4.67,0,0,0-2-.23c-1.23.08-2.46.3-3.46.43-.66-.93-1-2-1.73-2.32-1.18-.61-1.91-1.21-1.54-2.42l-6.05-2.25,1-.5c-.06-.16-.12-.32-.17-.48l-5.38,1.64c0,1.09,0,2.2-1.73,2.08a1.52,1.52,0,0,0-.85.53c-1,1-2,1.56-3.43.72a2.52,2.52,0,0,0-1.81.15c-1.7.65-3.15,1.7-5.23,1.45-1.45-.18-3,.67-4.53,1-3.51.73-7,.86-10.18-1.14a3.56,3.56,0,0,0-1.62-.49c-2.29-.05-4.58,0-6.86-.05-1.54-.05-3.07-.32-4.6-.51-.76-.09-1.53-.24-2.29-.29-1.84-.14-3.77.08-5.48-.44a7,7,0,0,0-3.94,0,11.09,11.09,0,0,1-6.79-.06,126.51,126.51,0,0,0-21.14-4,9.18,9.18,0,0,1-3.88-1.47c-.89-.55-1.7-1.24-2.7-.5-1.15-.3-2.46-.7-3.44-.3-1.36.56-3.17-.19-4.16,1.4,0,.06-.32,0-.48,0-1.88-.39-3.39.63-4.7,1.61a5.53,5.53,0,0,1-4.77,1.3c-.79,1-.62,2.63-2.33,2.7-.15,0-.34.33-.4.53-.44,1.51-.72,3.09-1.3,4.54-1.13,2.84-.62,5.82-.93,8.72a9.42,9.42,0,0,0,.11,2.65C279.82,376.32,280.54,380.26,281.24,384.21Zm73,43.88h.45c.25,1.76.62,3.51.7,5.28s.41,3.7-.64,5.66C353.52,435.19,353,431.66,354.24,428.09Z" transform="translate(-21 -1.41)"/><path d="M795.53,505.37a9.81,9.81,0,0,0,.12-2.65c-.32-2.9.19-5.88-.94-8.72-.57-1.45-.86-3-1.3-4.54-.06-.2-.25-.52-.39-.53-1.71-.07-1.55-1.72-2.34-2.7a5.59,5.59,0,0,1-4.77-1.3c-1.31-1-2.82-2-4.7-1.61-.16,0-.44.1-.48,0-1-1.59-2.8-.84-4.16-1.4-1-.4-2.29,0-3.44.3-1-.74-1.81-.05-2.7.5a9.14,9.14,0,0,1-3.87,1.47,125.51,125.51,0,0,0-21.14,4,11.12,11.12,0,0,1-6.8.06,7,7,0,0,0-3.94,0c-1.71.52-3.64.3-5.47.44-.77.05-1.53.2-2.3.29-1.53.19-3.06.46-4.6.51-2.28.09-4.57,0-6.86.05a3.41,3.41,0,0,0-1.61.49c-3.23,2-6.67,1.87-10.18,1.14-1.53-.32-3.09-1.17-4.54-1-2.08.25-3.53-.8-5.22-1.45a2.52,2.52,0,0,0-1.81-.15c-1.45.84-2.45.3-3.44-.72-.23-.24-.58-.54-.85-.53-1.71.12-1.77-1-1.73-2.08l-5.37-1.64-.18.48,1,.5-6.06,2.25c.37,1.21-.36,1.81-1.54,2.42-.71.36-1.07,1.39-1.73,2.32-1-.13-2.22-.35-3.46-.43a4.67,4.67,0,0,0-2,.23c-3.08,1.21-3.48,2.86-1.52,5.47a2.87,2.87,0,0,1,.5,1.84c-.22,2.25,1.34,3.5,3.51,2.72l1.13-.39a5.78,5.78,0,0,1-.14,4.63c-1,2.06-2.56,3.87-3.46,6a13.26,13.26,0,0,0-.66,4.76c0,.35,1,.75,1.57,1.1,1.93,1.21,3.94,2,6.27,1.26a1.31,1.31,0,0,1,.47.14c3.26,1.44,6.49.61,9.78.12a4.89,4.89,0,0,1,3.45,1.44c2.87,2.71,5.86,5.38,7.42,9.17.52,1.27,1.09,2.55,1.49,3.87.75,2.53,1.89,4.69,4.57,5.63,0,0,.13,0,.15.07,1.38,2.72,4.61,3.2,6.45,5.32a10.78,10.78,0,0,1,2.31,3.93c1.14,4.1,1.92,8.29,3,12.41a22.24,22.24,0,0,1,.43,10c-.14.72-1.35,1-1.7,1.69,0,0-1.78.22-2,1.14s-1.6,2.51,1,3.31,9.25-.57,9.25-.57c2.63.23,7.43.57,8.34-.34s.11-4.94.11-4.94A4.3,4.3,0,0,1,726.9,569a12.88,12.88,0,0,1,1.13-9.94c1.47-2.82,1.36-5.83,2-8.74s.77-5.93,1.31-8.87a3.34,3.34,0,0,1,3.69-2.94c4.41.14,8.81.48,13.21.6a21.26,21.26,0,0,0,4.35-.57,39.06,39.06,0,0,0,7.32-1.56c1.86-.74,3.42-2.3,5-3.61s2.48-1.26,3.19.61c.85,2.21,1.3,4.58,2.14,6.79a32.82,32.82,0,0,0,2.91,6.1,13.54,13.54,0,0,1,2.58,8,70.75,70.75,0,0,1-.75,8.72c-.44,2.84-1.23,5.27-1.91,8.07-2.15.93-5,4.3-4.18,5s10.53.59,11.47,0,.52-1.93.52-1.93c.59-7.35,3.53-14.16,5.94-21.45h.47c.17.67.33,1.33.5,2h.31l.48-2.55.94.77c.37-2.18.7-4.08,1-5.83l1.14.92-1.21-3.89,2.4-3.65.59.25c-.53-3.75-1.33-7.49-1.51-11.25a56.39,56.39,0,0,1,.8-8.89c.15-1.33.47-2.64.71-4C794.15,513.26,794.87,509.32,795.53,505.37ZM719.94,572c-1.05-2-.71-3.86-.63-5.66s.45-3.52.69-5.28h.46C721.72,564.66,721.17,568.19,719.94,572Z" transform="translate(-21 -1.41)"/><path d="M464.24,669.21c.24,1.32.56,2.63.71,4a56.39,56.39,0,0,1,.8,8.89c-.18,3.76-1,7.5-1.51,11.25l.6-.25,2.39,3.65L466,700.6l1.14-.92c.3,1.75.63,3.65,1,5.83l.94-.77.48,2.55h.31c.17-.67.33-1.33.5-2h.47c2.41,7.29,5.35,14.1,5.94,21.45,0,0-.42,1.33.52,1.93s10.62.68,11.48,0-2-4.06-4.19-5c-.68-2.8-1.47-5.23-1.91-8.07a70.75,70.75,0,0,1-.75-8.72,13.54,13.54,0,0,1,2.58-8,31.91,31.91,0,0,0,2.91-6.1c.84-2.21,1.3-4.58,2.14-6.79.71-1.87,1.62-1.9,3.19-.61s3.16,2.87,5,3.61c2.29.91,4.86,1.11,7.32,1.56a21.26,21.26,0,0,0,4.35.57c4.4-.12,8.8-.46,13.21-.6a3.34,3.34,0,0,1,3.69,2.94c.54,2.94.68,6,1.31,8.87s.52,5.92,2,8.74a12.92,12.92,0,0,1,1.12,9.94,4.23,4.23,0,0,1-1.56,2.07s-.8,4,.11,4.94,5.71.57,8.34.34c0,0,6.63,1.37,9.25.57s1.26-2.4,1-3.31-2-1.14-2-1.14c-.35-.67-1.56-1-1.7-1.69a22.38,22.38,0,0,1,.43-10c1.08-4.12,1.86-8.31,3-12.41a10.62,10.62,0,0,1,2.3-3.93c1.84-2.12,5.07-2.6,6.46-5.32a.21.21,0,0,0,.15-.07c2.67-.94,3.82-3.1,4.57-5.63a37.69,37.69,0,0,1,1.49-3.87c1.55-3.79,4.54-6.46,7.41-9.17a4.93,4.93,0,0,1,3.45-1.44c3.3.49,6.53,1.32,9.78-.12.15-.07.34-.18.47-.14,2.33.75,4.34,0,6.27-1.26.57-.35,1.58-.75,1.57-1.1a13.26,13.26,0,0,0-.66-4.76c-.9-2.1-2.43-3.91-3.46-6a5.78,5.78,0,0,1-.14-4.63l1.13.39c2.17.78,3.73-.47,3.51-2.72a2.87,2.87,0,0,1,.5-1.84c2-2.61,1.56-4.26-1.52-5.47a4.67,4.67,0,0,0-2-.23c-1.23.08-2.46.3-3.46.43-.66-.93-1-2-1.73-2.32-1.18-.61-1.91-1.21-1.54-2.42l-6-2.25,1-.5c-.06-.16-.12-.32-.17-.48l-5.38,1.64c0,1.09,0,2.2-1.73,2.08a1.52,1.52,0,0,0-.85.53c-1,1-2,1.56-3.43.72a2.52,2.52,0,0,0-1.81.15c-1.7.65-3.15,1.7-5.23,1.45-1.45-.18-3,.67-4.53,1-3.51.73-7,.86-10.18-1.14a3.56,3.56,0,0,0-1.62-.49h-6.86a37.63,37.63,0,0,1-4.6-.51c-.76-.09-1.53-.24-2.29-.29-1.84-.14-3.77.08-5.48-.44a7,7,0,0,0-3.94,0,11.09,11.09,0,0,1-6.79-.06,126.51,126.51,0,0,0-21.14-4,9.18,9.18,0,0,1-3.88-1.47c-.89-.55-1.7-1.24-2.7-.5-1.15-.3-2.46-.7-3.44-.3-1.36.56-3.17-.19-4.16,1.4,0,.06-.32,0-.48,0-1.88-.39-3.39.63-4.7,1.61a5.53,5.53,0,0,1-4.77,1.3c-.79,1-.62,2.63-2.33,2.7-.15,0-.34.33-.4.53-.44,1.51-.72,3.09-1.3,4.54-1.13,2.84-.62,5.82-.93,8.72a9.42,9.42,0,0,0,.11,2.65C462.82,661.32,463.54,665.26,464.24,669.21Zm73,43.88h.45c.25,1.76.62,3.51.7,5.28s.41,3.7-.64,5.66C536.52,720.19,536,716.66,537.24,713.09Z" transform="translate(-21 -1.41)"/><path d="M244.71,371.69a1.92,1.92,0,0,0-1.34,2.35,7,7,0,0,1,.25,1,7.28,7.28,0,0,1,0,1.32,8,8,0,0,1-.42,1.5,7.46,7.46,0,0,1-.55,1l-.2.3-.06.07c-.12.15-.25.29-.38.43s-.34.34-.52.49l-.11.1-.14.1a7.94,7.94,0,0,1-1.1.62,8.45,8.45,0,0,1-1.64.44,9.08,9.08,0,0,1-1.95,0,10.78,10.78,0,0,1-2-.55A8.72,8.72,0,0,1,233,380l-.17-.11-.25-.22.54-.32a9.44,9.44,0,0,0,4.5-7.42,6.78,6.78,0,0,0-.45-2.92,6.27,6.27,0,0,0-1.69-2.52,6.58,6.58,0,0,0-2.6-1.43,5.49,5.49,0,0,0-5.44,1.45,8.52,8.52,0,0,0-2,6,12.48,12.48,0,0,0,.81,4.31v.06a6.75,6.75,0,0,1-.76-.25,6.61,6.61,0,0,1-1-.57,4,4,0,0,1-.34-.23l-.4-.33-.53-.53-.33-.41-.06-.09a7.34,7.34,0,0,1-.66-2.52c0-.33,0-.45.37-.54a4,4,0,0,0,3-4.35,5,5,0,0,0-5.17-4.53c-.78,0-1.56.13-2.34.19a.52.52,0,0,1-.34-.09c-.61-.43-1.19-.92-1.83-1.31-2.28-1.39-4.61-2.7-6.87-4.11s-4.18-2.75-6.29-4.08a53.06,53.06,0,0,0-11-5.36,42.76,42.76,0,0,0-10.85-2.19c-2-.15-4.09-.27-6.13-.4-2.2-.14-4.4-.32-6.6-.43s-4.63-.21-6.94-.25c-3.12-.06-6.24-.06-9.37-.08s-6.2,0-9.3,0-6.07-.2-9.1-.31l-.63-.06h-2.24l-.43.06c-1.07.07-2.14.12-3.21.2a34.82,34.82,0,0,0-5.65,1,63.22,63.22,0,0,0-7.8,2.62c-3.79,1.53-7.48,3.28-11.13,5.1-1.54.76-3,1.57-4.6,2.31-2,1-4.08,1.86-6.09,2.84a76.48,76.48,0,0,0-10.79,6.38,49.7,49.7,0,0,0-5,4.05c-.66.62-1.28,1.27-1.92,1.9a.65.65,0,0,1-.63.26,26.07,26.07,0,0,1-5.12-1.55,3.52,3.52,0,0,1-.88-.65c-.27-.25-.45-.58-.72-.81a7.81,7.81,0,0,0-1.36-1,1.14,1.14,0,0,0-1.56.42l-.06.12a3.32,3.32,0,0,0-.25,1.12v1.36H63a.91.91,0,0,0-1,.8,1,1,0,0,0,0,.25,4,4,0,0,0,.23.95A6.66,6.66,0,0,0,63.75,374a24.7,24.7,0,0,1,2.73,3.39,6.08,6.08,0,0,0,.9,1A6.59,6.59,0,0,0,70.77,380a1.87,1.87,0,0,1,1.41.72.62.62,0,0,1,.08.33c0,.4,0,.81,0,1.21.12.9.28,1.8.46,2.69a27.44,27.44,0,0,1,.81,4.68,4.19,4.19,0,0,1-.82,3,1.7,1.7,0,0,1-1.15.72,1.52,1.52,0,0,0-1.51,1.4c0,.21-.14.3-.37.29a1.44,1.44,0,0,0-1.34.65,1.08,1.08,0,0,1-1,.42,9.89,9.89,0,0,1-1.33-.18c-1.06-.16-1.15.29-.94,1.09s.49,1.6.72,2.4a3.5,3.5,0,0,1,.13.85c0,.88-.07,1.75,0,2.62a2.57,2.57,0,0,0,2.48,2.66,2.68,2.68,0,0,0,.4,0,1.71,1.71,0,0,1,1.12.32,3.52,3.52,0,0,1,1.39,1.42c-.23.19-.47.37-.69.56a.61.61,0,0,0-.25.81.74.74,0,0,0,.16.19,4.71,4.71,0,0,0,3,1.52,9.61,9.61,0,0,0,2.62-.22,8.86,8.86,0,0,1,4.37.18,29.17,29.17,0,0,0,8,1.61,22.25,22.25,0,0,0,4-.18,17,17,0,0,0,5.32-1.59,3.19,3.19,0,0,1,2.65-.13,25.27,25.27,0,0,1,2.32,1.18,3.8,3.8,0,0,0,2.93.56c.61-.17.85,0,1.23.5a6.78,6.78,0,0,1,1,3.8v3a26.25,26.25,0,0,0,.25,2.75,2.07,2.07,0,0,1,.06.61c-.41,1.52-.83,3-1.3,4.54a5.8,5.8,0,0,1-2,3.06,4.12,4.12,0,0,0-.93,1.18c-.19.34-.36.7-.54,1.06a12.27,12.27,0,0,1-2,3,7,7,0,0,0,1,.47,8.79,8.79,0,0,0,6.15-.64,2.13,2.13,0,0,1,1.71-.22.93.93,0,0,0,1.15-.45,3.25,3.25,0,0,0,.33-.57c.18-.56.36-1.12.49-1.69.26-1.12.49-2.25.7-3.38a14.74,14.74,0,0,1,1.72-4.91,9.58,9.58,0,0,0,1.19-2.65c.09-.38.14-.76.21-1.15h.14a1.76,1.76,0,0,1,1.54,1.24c.21.57.35,1.17.52,1.76a4.49,4.49,0,0,0,1.5,2.48,4.74,4.74,0,0,1,1,1,5.94,5.94,0,0,0,4.26,2.65.72.72,0,0,1,.24.14,6.76,6.76,0,0,0,.7.49c1,.54,2.07,1.07,3.11,1.59a.24.24,0,0,0,.28-.06,3.07,3.07,0,0,0,.49-.74,4.62,4.62,0,0,0-.78-4.57,7.49,7.49,0,0,0-1-.95l.37-.17c.33-.09.66-.15,1-.26a.65.65,0,0,0,.46-.8.61.61,0,0,0,0-.12,2.78,2.78,0,0,0-1.57-1.42c-.47-.18-1-.29-1.42-.46a.71.71,0,0,1-.3-.27,9.54,9.54,0,0,0-.8-1.09,11.19,11.19,0,0,0-1.26-.91.92.92,0,0,1-.45-.69,2.17,2.17,0,0,1,1-2.17c.45-.3.91-.59,1.37-.86a7.52,7.52,0,0,0,2.83-2.77,2.57,2.57,0,0,1,1.18-1.08,18.2,18.2,0,0,0,4.69-3.22,1.46,1.46,0,0,1,.72-.44c.49-.08,1-.21,1.46-.26a28.94,28.94,0,0,1,5.66.07c1.38.14,2.76.32,4.13.49,1.8.21,3.6.45,5.4.65,1.59.17,3.18.33,4.78.42a40,40,0,0,0,5.79,0,26.31,26.31,0,0,0,4.66-.75,43,43,0,0,1,9-1.5,25.38,25.38,0,0,1,6.68.46,8.72,8.72,0,0,1,2.87,1.06.52.52,0,0,1,.27.45c.14,1.35.28,2.7.46,4a25.64,25.64,0,0,1,.42,5.1,5.53,5.53,0,0,1-.69,2.48c-1.29,2.24-2.57,4.48-3.83,6.74a11.24,11.24,0,0,0-1.37,3.39,2.25,2.25,0,0,1-.07.52c-.4.81-.81,1.61-1.25,2.39-.22.39-.51.74-.8,1.15,1,.15,1.89.31,2.81.43a10.62,10.62,0,0,0,3.73,0,3.06,3.06,0,0,0,2.44-1.9h.05c.21.14.4.3.61.42a1,1,0,0,0,1.36-.38,1,1,0,0,0,.13-.52,11.69,11.69,0,0,1,.11-1.77,15.64,15.64,0,0,1,1.13-4.51,18.9,18.9,0,0,1,4.8-6.53,3.34,3.34,0,0,1,1.27-.58l1-.29a2,2,0,0,0,1.41-1.11,16,16,0,0,0,.73-2c.16-.61.2-1.26.3-1.9a2.45,2.45,0,0,1,2.07.93c.26.37.45.79.72,1.16s.69.84,1,1.26a4.74,4.74,0,0,1,.66.82,12.07,12.07,0,0,1,1,4.66c.07,1,0,2,0,3,0,1.16,0,2.32.07,3.47a2.12,2.12,0,0,1-.24,1.21c-.45.82-.92,1.62-1.38,2.43-.37.63-.32.77.42.89a12.24,12.24,0,0,0,5.35-.27,3.46,3.46,0,0,0,2.67-2.09c.23.09.44.19.67.26a.71.71,0,0,0,.88-.49.5.5,0,0,0,0-.12,3.82,3.82,0,0,0-.33-2,23.92,23.92,0,0,1-1.94-6.47,7.83,7.83,0,0,1,1.55-6A1.62,1.62,0,0,0,215,416a.54.54,0,0,1,.13-.54,2.87,2.87,0,0,0,.57-2.57,12.36,12.36,0,0,0-.9-2,10.82,10.82,0,0,1-1.4-3.41.89.89,0,0,1,0-.58c1.23-2.1,2.49-4.18,3.73-6.28a25.48,25.48,0,0,0,2.73-5.54c.6-1.95,1.08-3.95,1.66-5.91a35.4,35.4,0,0,0,1.4-9.32,9.75,9.75,0,0,0,5.42,1.21c.19.24.39.47.6.7a11.81,11.81,0,0,0,4.75,3.08,10.52,10.52,0,0,0,10.56-2,9.47,9.47,0,0,0,2.66-9.64A1.93,1.93,0,0,0,244.71,371.69Zm-12.61,3.56c-.15.14-.3.28-.46.41l-.1.08-.32.21a8.76,8.76,0,0,1-.95.52,3.78,3.78,0,0,1-.17-.35,12.63,12.63,0,0,1-.76-2.77,9.31,9.31,0,0,1,0-2.11,6.77,6.77,0,0,1,.35-1.32,4.23,4.23,0,0,1,.25-.47,1.27,1.27,0,0,1,.13-.19l.07-.08.28-.28a2.88,2.88,0,0,1,.38-.22,2.42,2.42,0,0,1,.36-.1h.47a4.24,4.24,0,0,1,.61.17,2.87,2.87,0,0,1,.48.28l.1.06.2.18a2.44,2.44,0,0,1,.27.29,3.6,3.6,0,0,1,.31.54,5.09,5.09,0,0,1,.23.85,7,7,0,0,1,0,1.12,8,8,0,0,1-.35,1.27,7.19,7.19,0,0,1-.66,1.14l-.11.15-.12.14C232.41,374.93,232.26,375.1,232.1,375.25Z" transform="translate(-21 -1.41)"/><path d="M1002.71,667.69a1.92,1.92,0,0,0-1.34,2.35,7,7,0,0,1,.25,1,7.28,7.28,0,0,1,0,1.32,8,8,0,0,1-.42,1.5,7.46,7.46,0,0,1-.55,1l-.2.3-.06.07c-.12.15-.25.29-.38.43s-.34.34-.52.49l-.11.1-.14.1a7.94,7.94,0,0,1-1.1.62,8.45,8.45,0,0,1-1.64.44,9.55,9.55,0,0,1-2,0,10.78,10.78,0,0,1-2-.55A9.25,9.25,0,0,1,991,676l-.17-.11-.25-.22.54-.32a9.44,9.44,0,0,0,4.5-7.42,6.78,6.78,0,0,0-.45-2.92,6.27,6.27,0,0,0-1.69-2.52,6.58,6.58,0,0,0-2.6-1.43,5.49,5.49,0,0,0-5.44,1.45,8.52,8.52,0,0,0-2,6,12.48,12.48,0,0,0,.81,4.31v.06a6.75,6.75,0,0,1-.76-.25,6.61,6.61,0,0,1-1-.57,4,4,0,0,1-.34-.23l-.4-.33-.53-.53-.33-.41-.06-.09a7.34,7.34,0,0,1-.66-2.52c0-.33,0-.45.37-.54a4,4,0,0,0,3-4.35,5,5,0,0,0-5.17-4.53c-.78,0-1.56.13-2.34.19a.52.52,0,0,1-.34-.09c-.61-.43-1.19-.92-1.83-1.31-2.28-1.39-4.61-2.7-6.87-4.11s-4.18-2.75-6.29-4.08a53.06,53.06,0,0,0-11-5.36,42.76,42.76,0,0,0-10.85-2.19c-2-.15-4.09-.27-6.13-.4-2.2-.14-4.4-.32-6.6-.43s-4.63-.21-6.94-.25c-3.12-.06-6.24-.06-9.37-.08s-6.2,0-9.3,0-6.07-.2-9.1-.31l-.63-.06h-2.24l-.43.06c-1.07.07-2.14.12-3.21.2a34.82,34.82,0,0,0-5.65,1,63.22,63.22,0,0,0-7.8,2.62c-3.79,1.53-7.48,3.28-11.13,5.1-1.54.76-3,1.57-4.6,2.31-2,1-4.08,1.86-6.09,2.84a76.48,76.48,0,0,0-10.79,6.38,49.21,49.21,0,0,0-5,4c-.66.62-1.28,1.27-1.92,1.9a.65.65,0,0,1-.63.26,26.07,26.07,0,0,1-5.12-1.55,3.52,3.52,0,0,1-.88-.65c-.27-.25-.45-.58-.72-.81a7.81,7.81,0,0,0-1.36-1,1.14,1.14,0,0,0-1.56.42l-.06.12a3.32,3.32,0,0,0-.25,1.12v1.36H821a.91.91,0,0,0-1,.81.61.61,0,0,0,0,.19,3.82,3.82,0,0,0,.23,1,6.77,6.77,0,0,0,1.52,2.32,24.7,24.7,0,0,1,2.73,3.39,6.08,6.08,0,0,0,.9,1,6.59,6.59,0,0,0,3.39,1.62,1.87,1.87,0,0,1,1.41.72.62.62,0,0,1,.08.33c0,.4,0,.81,0,1.21.12.9.28,1.8.46,2.69a27.44,27.44,0,0,1,.81,4.68,4.19,4.19,0,0,1-.82,3,1.7,1.7,0,0,1-1.15.72,1.52,1.52,0,0,0-1.51,1.4c0,.21-.14.3-.37.29a1.44,1.44,0,0,0-1.34.65,1.08,1.08,0,0,1-1,.42A9.89,9.89,0,0,1,824,692c-1.06-.16-1.15.29-.94,1.09s.49,1.6.72,2.4a3.5,3.5,0,0,1,.13.85c0,.88-.07,1.75,0,2.62a2.57,2.57,0,0,0,2.48,2.66,2.68,2.68,0,0,0,.4,0,1.71,1.71,0,0,1,1.12.32,3.52,3.52,0,0,1,1.39,1.42c-.23.19-.47.37-.69.56a.61.61,0,0,0-.25.81.74.74,0,0,0,.16.19,4.71,4.71,0,0,0,3,1.52,9.61,9.61,0,0,0,2.62-.22,8.86,8.86,0,0,1,4.37.18,29.17,29.17,0,0,0,8,1.61,22.29,22.29,0,0,0,4-.18,17.12,17.12,0,0,0,5.32-1.59,3.19,3.19,0,0,1,2.65-.13,25.27,25.27,0,0,1,2.32,1.18,3.8,3.8,0,0,0,2.93.56c.61-.17.85,0,1.23.5a6.78,6.78,0,0,1,1,3.8v3a26.25,26.25,0,0,0,.25,2.75,2.07,2.07,0,0,1,.06.61c-.41,1.52-.83,3-1.3,4.54a5.8,5.8,0,0,1-2,3.06,4.12,4.12,0,0,0-.93,1.18c-.19.34-.36.7-.54,1.06a12.27,12.27,0,0,1-2,3,7,7,0,0,0,1,.47,8.79,8.79,0,0,0,6.15-.64,2.13,2.13,0,0,1,1.71-.22.93.93,0,0,0,1.15-.45,3.25,3.25,0,0,0,.33-.57c.18-.56.36-1.12.49-1.69.26-1.12.49-2.25.7-3.38a14.74,14.74,0,0,1,1.72-4.91,9.58,9.58,0,0,0,1.19-2.65c.09-.38.14-.76.21-1.15h.14a1.76,1.76,0,0,1,1.54,1.24c.21.57.35,1.17.52,1.76a4.49,4.49,0,0,0,1.5,2.48,4.74,4.74,0,0,1,1,1,5.94,5.94,0,0,0,4.26,2.65.72.72,0,0,1,.24.14,6.76,6.76,0,0,0,.7.49c1,.54,2.07,1.07,3.11,1.59a.24.24,0,0,0,.28-.06,3.07,3.07,0,0,0,.49-.74,4.62,4.62,0,0,0-.78-4.57,7.87,7.87,0,0,0-1-1l.37-.17c.33-.09.66-.15,1-.26a.65.65,0,0,0,.46-.8.61.61,0,0,0,0-.12,2.78,2.78,0,0,0-1.57-1.42c-.47-.18-1-.29-1.42-.46a.71.71,0,0,1-.3-.27,9.54,9.54,0,0,0-.8-1.09,11.19,11.19,0,0,0-1.26-.91.92.92,0,0,1-.45-.69,2.17,2.17,0,0,1,1-2.17c.45-.3.91-.59,1.37-.86a7.52,7.52,0,0,0,2.83-2.77,2.57,2.57,0,0,1,1.18-1.08,18.2,18.2,0,0,0,4.69-3.22,1.46,1.46,0,0,1,.72-.44c.49-.08,1-.21,1.46-.26a28.94,28.94,0,0,1,5.66.07c1.38.14,2.76.32,4.13.49,1.8.21,3.6.45,5.4.65,1.59.17,3.18.33,4.78.42a40,40,0,0,0,5.79,0,26.31,26.31,0,0,0,4.66-.75,43,43,0,0,1,9-1.5,25.38,25.38,0,0,1,6.68.46,8.72,8.72,0,0,1,2.87,1.06.52.52,0,0,1,.27.45c.14,1.35.28,2.7.46,4a25.64,25.64,0,0,1,.42,5.1,5.53,5.53,0,0,1-.69,2.48c-1.29,2.24-2.57,4.48-3.83,6.74a11.24,11.24,0,0,0-1.37,3.39,2.25,2.25,0,0,1-.07.52c-.4.81-.81,1.61-1.25,2.39-.22.39-.51.74-.8,1.15,1,.15,1.89.31,2.81.43a10.62,10.62,0,0,0,3.73,0,3.06,3.06,0,0,0,2.44-1.9h0c.21.14.4.3.61.42a1,1,0,0,0,1.36-.38,1,1,0,0,0,.13-.52,11.69,11.69,0,0,1,.11-1.77,15.64,15.64,0,0,1,1.13-4.51,18.9,18.9,0,0,1,4.8-6.53,3.34,3.34,0,0,1,1.27-.58l1-.29a2,2,0,0,0,1.41-1.11,16,16,0,0,0,.73-2c.16-.61.2-1.26.3-1.9a2.45,2.45,0,0,1,2.07.93c.26.37.45.79.72,1.16s.69.84,1,1.26a4.74,4.74,0,0,1,.66.82,12.07,12.07,0,0,1,1,4.66c.07,1,0,2,0,3,0,1.16,0,2.32.07,3.47a2.12,2.12,0,0,1-.24,1.21c-.45.82-.92,1.62-1.38,2.43-.37.63-.32.77.42.89a12.24,12.24,0,0,0,5.35-.27,3.46,3.46,0,0,0,2.67-2.09c.23.09.44.19.67.26a.71.71,0,0,0,.88-.49.5.5,0,0,0,0-.12,3.82,3.82,0,0,0-.33-2,23.92,23.92,0,0,1-1.94-6.47,7.83,7.83,0,0,1,1.55-6A1.62,1.62,0,0,0,973,712a.54.54,0,0,1,.13-.54,2.87,2.87,0,0,0,.57-2.57,12.36,12.36,0,0,0-.9-2,10.82,10.82,0,0,1-1.4-3.41,1,1,0,0,1,0-.58c1.23-2.1,2.49-4.18,3.73-6.28a25.48,25.48,0,0,0,2.73-5.54c.6-2,1.08-4,1.66-5.91a35.46,35.46,0,0,0,1.4-9.32,9.75,9.75,0,0,0,5.42,1.21c.19.24.39.47.6.7a11.81,11.81,0,0,0,4.75,3.08,10.52,10.52,0,0,0,10.56-2,9.47,9.47,0,0,0,2.66-9.64A1.93,1.93,0,0,0,1002.71,667.69Zm-12.61,3.56c-.15.14-.3.28-.46.41l-.1.08-.32.21a9.48,9.48,0,0,1-1,.52,3.78,3.78,0,0,1-.17-.35,12.63,12.63,0,0,1-.76-2.77,10.63,10.63,0,0,1,0-2.11,6.77,6.77,0,0,1,.35-1.32,4.23,4.23,0,0,1,.25-.47,1.27,1.27,0,0,1,.13-.19l.07-.08.28-.28a2.88,2.88,0,0,1,.38-.22,2.42,2.42,0,0,1,.36-.1h.47a4.24,4.24,0,0,1,.61.17,2.87,2.87,0,0,1,.48.28l.1.06.2.18a2.44,2.44,0,0,1,.27.29,3.6,3.6,0,0,1,.31.54,5.09,5.09,0,0,1,.23.85,7,7,0,0,1,0,1.12,8,8,0,0,1-.35,1.27,7.19,7.19,0,0,1-.66,1.14l-.11.15-.12.14a4.9,4.9,0,0,1-.44.48Z" transform="translate(-21 -1.41)"/><path d="M993.71,77.69A1.91,1.91,0,0,0,992.37,80a7,7,0,0,1,.25,1,7.28,7.28,0,0,1,0,1.32,8,8,0,0,1-.42,1.5,7.46,7.46,0,0,1-.55,1l-.2.3-.06.07c-.12.15-.25.29-.38.43s-.34.34-.52.49l-.11.1-.14.1a7.94,7.94,0,0,1-1.1.62,8.45,8.45,0,0,1-1.64.44,9.55,9.55,0,0,1-2,0,10.78,10.78,0,0,1-2-.55A8.38,8.38,0,0,1,982,86l-.17-.11-.25-.22.54-.32a9.44,9.44,0,0,0,4.5-7.42A6.79,6.79,0,0,0,986.2,75a6.27,6.27,0,0,0-1.69-2.52,6.58,6.58,0,0,0-2.6-1.43,5.49,5.49,0,0,0-5.44,1.45,8.52,8.52,0,0,0-2,6,12.48,12.48,0,0,0,.81,4.31v.06a6.75,6.75,0,0,1-.76-.25,6.61,6.61,0,0,1-1-.57,4,4,0,0,1-.34-.23l-.4-.33c-.18-.17-.36-.35-.53-.53l-.33-.41-.06-.09a7.34,7.34,0,0,1-.66-2.52c0-.33,0-.45.37-.54a4,4,0,0,0,3-4.35,5,5,0,0,0-5.17-4.53c-.78,0-1.56.13-2.34.19a.52.52,0,0,1-.34-.09c-.61-.43-1.19-.92-1.83-1.31-2.28-1.39-4.61-2.7-6.87-4.11s-4.18-2.75-6.29-4.08a53.06,53.06,0,0,0-11-5.36,42.76,42.76,0,0,0-10.85-2.19c-2-.15-4.09-.27-6.13-.4-2.2-.14-4.4-.32-6.6-.43s-4.63-.21-6.94-.25c-3.12-.06-6.24-.06-9.37-.08s-6.2,0-9.3,0-6.07-.2-9.1-.31l-.63-.06h-2.24l-.43.06c-1.07.07-2.14.12-3.21.2a34.82,34.82,0,0,0-5.65,1,63.22,63.22,0,0,0-7.8,2.62c-3.79,1.53-7.48,3.28-11.13,5.1-1.54.76-3,1.57-4.6,2.31-2,1-4.08,1.86-6.09,2.84a76.48,76.48,0,0,0-10.79,6.38,49.21,49.21,0,0,0-5,4c-.66.62-1.28,1.27-1.92,1.9a.65.65,0,0,1-.63.26,26.07,26.07,0,0,1-5.12-1.55,3.52,3.52,0,0,1-.88-.65c-.27-.25-.45-.58-.72-.81a7.81,7.81,0,0,0-1.36-1,1.14,1.14,0,0,0-1.56.42l-.06.12a3.32,3.32,0,0,0-.25,1.12v1.36H812a.91.91,0,0,0-1,.8,1,1,0,0,0,0,.25,4,4,0,0,0,.23,1A6.61,6.61,0,0,0,812.75,80a24.7,24.7,0,0,1,2.73,3.39,6.08,6.08,0,0,0,.9,1A6.59,6.59,0,0,0,819.77,86a1.87,1.87,0,0,1,1.41.72.62.62,0,0,1,.08.33c0,.4,0,.81,0,1.21.12.9.28,1.8.46,2.69a27.44,27.44,0,0,1,.81,4.68,4.19,4.19,0,0,1-.82,3,1.7,1.7,0,0,1-1.15.72,1.52,1.52,0,0,0-1.51,1.4c0,.21-.14.3-.37.29a1.44,1.44,0,0,0-1.34.65,1.08,1.08,0,0,1-1,.42,9.89,9.89,0,0,1-1.33-.18c-1.06-.16-1.15.29-.94,1.09s.49,1.6.72,2.4a3.5,3.5,0,0,1,.13.85c0,.88-.07,1.75,0,2.62a2.57,2.57,0,0,0,2.48,2.66,2.68,2.68,0,0,0,.4,0,1.71,1.71,0,0,1,1.12.32,3.52,3.52,0,0,1,1.39,1.42c-.23.19-.47.37-.69.56a.61.61,0,0,0-.25.81.74.74,0,0,0,.16.19,4.71,4.71,0,0,0,3,1.52,9.61,9.61,0,0,0,2.62-.22,8.86,8.86,0,0,1,4.37.18,29.17,29.17,0,0,0,8,1.61,22.29,22.29,0,0,0,4-.18,17.12,17.12,0,0,0,5.32-1.59,3.19,3.19,0,0,1,2.65-.13,25.27,25.27,0,0,1,2.32,1.18,3.8,3.8,0,0,0,2.93.56c.61-.17.85,0,1.23.5a6.78,6.78,0,0,1,1,3.8v3a26.25,26.25,0,0,0,.25,2.75,2.07,2.07,0,0,1,.06.61c-.41,1.52-.83,3-1.3,4.54a5.8,5.8,0,0,1-2,3.06,4.12,4.12,0,0,0-.93,1.18c-.19.34-.36.7-.54,1.06a12.27,12.27,0,0,1-2,3,7,7,0,0,0,1,.47,8.79,8.79,0,0,0,6.15-.64,2.13,2.13,0,0,1,1.71-.22.93.93,0,0,0,1.15-.45,3.25,3.25,0,0,0,.33-.57c.18-.56.36-1.12.49-1.69.26-1.12.49-2.25.7-3.38a14.74,14.74,0,0,1,1.72-4.91,9.58,9.58,0,0,0,1.19-2.65c.09-.38.14-.76.21-1.15h.14a1.76,1.76,0,0,1,1.54,1.24c.21.57.35,1.17.52,1.76a4.49,4.49,0,0,0,1.5,2.48,4.74,4.74,0,0,1,1,1,5.94,5.94,0,0,0,4.26,2.65.72.72,0,0,1,.24.14,6.76,6.76,0,0,0,.7.49c1,.54,2.07,1.07,3.11,1.59a.24.24,0,0,0,.28-.06,3.07,3.07,0,0,0,.49-.74,4.62,4.62,0,0,0-.78-4.57,7.87,7.87,0,0,0-1-1l.37-.17c.33-.09.66-.15,1-.26a.65.65,0,0,0,.46-.8.61.61,0,0,0,0-.12,2.78,2.78,0,0,0-1.57-1.42c-.47-.18-1-.29-1.42-.46a.71.71,0,0,1-.3-.27,9.54,9.54,0,0,0-.8-1.09,11.19,11.19,0,0,0-1.26-.91.92.92,0,0,1-.45-.69,2.17,2.17,0,0,1,1-2.17c.45-.3.91-.59,1.37-.86a7.52,7.52,0,0,0,2.83-2.77,2.57,2.57,0,0,1,1.18-1.08,18.2,18.2,0,0,0,4.69-3.22,1.46,1.46,0,0,1,.72-.44c.49-.08,1-.21,1.46-.26a28.94,28.94,0,0,1,5.66.07c1.38.14,2.76.32,4.13.49,1.8.21,3.6.45,5.4.65,1.59.17,3.18.33,4.78.42a40,40,0,0,0,5.79,0,26.31,26.31,0,0,0,4.66-.75,43,43,0,0,1,9-1.5,25.38,25.38,0,0,1,6.68.46,8.72,8.72,0,0,1,2.87,1.06.52.52,0,0,1,.27.45c.14,1.35.28,2.7.46,4a25.64,25.64,0,0,1,.42,5.1,5.53,5.53,0,0,1-.69,2.48c-1.29,2.24-2.57,4.48-3.83,6.74a11.24,11.24,0,0,0-1.37,3.39,2.25,2.25,0,0,1-.07.52c-.4.81-.81,1.61-1.25,2.39-.22.39-.51.74-.8,1.15,1,.15,1.89.31,2.81.43a10.62,10.62,0,0,0,3.73,0,3.06,3.06,0,0,0,2.44-1.9h0c.21.14.4.3.61.42a1,1,0,0,0,1.36-.38,1,1,0,0,0,.13-.52,11.69,11.69,0,0,1,.11-1.77,15.64,15.64,0,0,1,1.13-4.51,18.9,18.9,0,0,1,4.8-6.53,3.34,3.34,0,0,1,1.27-.58l1-.29a2,2,0,0,0,1.41-1.11,14.72,14.72,0,0,0,.73-2c.16-.61.2-1.26.3-1.9a2.45,2.45,0,0,1,2.07.93c.26.37.45.79.72,1.16s.69.84,1,1.26a4.74,4.74,0,0,1,.66.82,12.07,12.07,0,0,1,1,4.66c.07,1,0,2,0,3,0,1.16,0,2.32.07,3.47a2.12,2.12,0,0,1-.24,1.21c-.45.82-.92,1.62-1.38,2.43-.37.63-.32.77.42.89a12.24,12.24,0,0,0,5.35-.27,3.46,3.46,0,0,0,2.67-2.09c.23.09.44.19.67.26a.71.71,0,0,0,.88-.49.5.5,0,0,0,0-.12,3.82,3.82,0,0,0-.33-2,23.92,23.92,0,0,1-1.94-6.47,7.83,7.83,0,0,1,1.55-6A1.62,1.62,0,0,0,964,122a.54.54,0,0,1,.13-.54,2.87,2.87,0,0,0,.57-2.57,12.36,12.36,0,0,0-.9-2,10.82,10.82,0,0,1-1.4-3.41,1,1,0,0,1,0-.58c1.23-2.1,2.49-4.18,3.73-6.28a25.48,25.48,0,0,0,2.73-5.54c.6-2,1.08-4,1.66-5.91a35.4,35.4,0,0,0,1.4-9.32A9.75,9.75,0,0,0,977.29,87c.19.24.39.47.6.7a11.81,11.81,0,0,0,4.75,3.08,10.52,10.52,0,0,0,10.56-2A9.48,9.48,0,0,0,996.06,79,1.93,1.93,0,0,0,993.71,77.69ZM981.1,81.25c-.15.14-.3.28-.46.41l-.1.08-.32.21a9.48,9.48,0,0,1-1,.52,3.78,3.78,0,0,1-.17-.35,12.63,12.63,0,0,1-.76-2.77,9.31,9.31,0,0,1,0-2.11,6.77,6.77,0,0,1,.35-1.32,4.23,4.23,0,0,1,.25-.47,1.27,1.27,0,0,1,.13-.19l.07-.08a3.7,3.7,0,0,1,.28-.28,2.88,2.88,0,0,1,.38-.22,2.42,2.42,0,0,1,.36-.1,3.69,3.69,0,0,1,.47,0,4.24,4.24,0,0,1,.61.17,2.87,2.87,0,0,1,.48.28l.1.06.2.18a2.44,2.44,0,0,1,.27.29,3.6,3.6,0,0,1,.31.54,5.09,5.09,0,0,1,.23.85,7,7,0,0,1,0,1.12,8,8,0,0,1-.35,1.27,7.19,7.19,0,0,1-.66,1.14l-.11.15-.12.14A4.9,4.9,0,0,1,981.1,81.25Z" transform="translate(-21 -1.41)"/><path d="M803.71,218.69a1.92,1.92,0,0,0-1.34,2.35,7,7,0,0,1,.25,1,7.28,7.28,0,0,1,0,1.32,8,8,0,0,1-.42,1.5,7.46,7.46,0,0,1-.55,1l-.2.3-.06.07c-.12.15-.25.29-.38.43s-.34.34-.52.49l-.11.1-.14.1a7.94,7.94,0,0,1-1.1.62,8.45,8.45,0,0,1-1.64.44,9.55,9.55,0,0,1-2,0,10.78,10.78,0,0,1-2-.55A9.25,9.25,0,0,1,792,227l-.17-.11-.25-.22.54-.32a9.44,9.44,0,0,0,4.5-7.42,6.78,6.78,0,0,0-.45-2.92,6.27,6.27,0,0,0-1.69-2.52,6.58,6.58,0,0,0-2.6-1.43,5.49,5.49,0,0,0-5.44,1.45,8.52,8.52,0,0,0-2,6,12.48,12.48,0,0,0,.81,4.31v.06a6.75,6.75,0,0,1-.76-.25,6.61,6.61,0,0,1-1-.57,4,4,0,0,1-.34-.23l-.4-.33c-.18-.17-.36-.35-.53-.53l-.33-.41-.06-.09a7.34,7.34,0,0,1-.66-2.52c0-.33,0-.45.37-.54a4,4,0,0,0,3-4.35,5,5,0,0,0-5.17-4.53c-.78,0-1.56.13-2.34.19a.52.52,0,0,1-.34-.09c-.61-.43-1.19-.92-1.83-1.31-2.28-1.39-4.61-2.7-6.87-4.11s-4.18-2.75-6.29-4.08a53.06,53.06,0,0,0-11-5.36,42.76,42.76,0,0,0-10.85-2.19c-2-.15-4.09-.27-6.13-.4-2.2-.14-4.4-.32-6.6-.43s-4.63-.21-6.94-.25c-3.12-.06-6.24-.06-9.37-.08s-6.2,0-9.3,0-6.07-.2-9.1-.31a2.25,2.25,0,0,1-.63-.06h-2.24l-.43.06c-1.07.07-2.14.12-3.21.2a34.82,34.82,0,0,0-5.65,1,63.22,63.22,0,0,0-7.8,2.62c-3.79,1.53-7.48,3.28-11.13,5.1-1.54.76-3,1.57-4.6,2.31-2,1-4.08,1.86-6.09,2.84a76.48,76.48,0,0,0-10.79,6.38,49.7,49.7,0,0,0-5,4.05c-.66.62-1.28,1.27-1.92,1.9a.65.65,0,0,1-.63.26,26.07,26.07,0,0,1-5.12-1.55,3.52,3.52,0,0,1-.88-.65c-.27-.25-.45-.58-.72-.81a7.81,7.81,0,0,0-1.36-1,1.14,1.14,0,0,0-1.56.42l-.06.12a3.32,3.32,0,0,0-.25,1.12v1.36H622a.91.91,0,0,0-1,.81.61.61,0,0,0,0,.19,3.82,3.82,0,0,0,.23,1,6.77,6.77,0,0,0,1.52,2.32,24.7,24.7,0,0,1,2.73,3.39,6.08,6.08,0,0,0,.9,1,6.59,6.59,0,0,0,3.39,1.62,1.87,1.87,0,0,1,1.41.72.62.62,0,0,1,.08.33c0,.4,0,.81,0,1.21.12.9.28,1.8.46,2.69a27.44,27.44,0,0,1,.81,4.68,4.19,4.19,0,0,1-.82,3,1.7,1.7,0,0,1-1.15.72,1.52,1.52,0,0,0-1.51,1.4c0,.21-.14.3-.37.29a1.44,1.44,0,0,0-1.34.65,1.08,1.08,0,0,1-1,.42A9.89,9.89,0,0,1,625,243c-1.06-.16-1.15.29-.94,1.09s.49,1.6.72,2.4a3.5,3.5,0,0,1,.13.85c0,.88-.07,1.75,0,2.62a2.57,2.57,0,0,0,2.48,2.66,2.68,2.68,0,0,0,.4,0,1.71,1.71,0,0,1,1.12.32,3.52,3.52,0,0,1,1.39,1.42c-.23.19-.47.37-.69.56a.61.61,0,0,0-.25.81.74.74,0,0,0,.16.19,4.71,4.71,0,0,0,3,1.52,9.61,9.61,0,0,0,2.62-.22,8.86,8.86,0,0,1,4.37.18,29.17,29.17,0,0,0,8,1.61,22.29,22.29,0,0,0,4-.18,17.12,17.12,0,0,0,5.32-1.59,3.19,3.19,0,0,1,2.65-.13,25.27,25.27,0,0,1,2.32,1.18,3.8,3.8,0,0,0,2.93.56c.61-.17.85-.05,1.23.5a6.78,6.78,0,0,1,1,3.8v3a26.25,26.25,0,0,0,.25,2.75,2.07,2.07,0,0,1,.06.61c-.41,1.52-.83,3-1.3,4.54a5.8,5.8,0,0,1-2,3.06,4.12,4.12,0,0,0-.93,1.18c-.19.34-.36.7-.54,1.06a12.27,12.27,0,0,1-2,3,7,7,0,0,0,1,.47,8.79,8.79,0,0,0,6.15-.64,2.13,2.13,0,0,1,1.71-.22.93.93,0,0,0,1.15-.45,3.25,3.25,0,0,0,.33-.57c.18-.56.36-1.12.49-1.69.26-1.12.49-2.25.7-3.38a14.74,14.74,0,0,1,1.72-4.91,9.58,9.58,0,0,0,1.19-2.65c.09-.38.14-.76.21-1.15h.14a1.76,1.76,0,0,1,1.54,1.24c.21.57.35,1.17.52,1.76a4.49,4.49,0,0,0,1.5,2.48,4.74,4.74,0,0,1,1,1,5.94,5.94,0,0,0,4.26,2.65.72.72,0,0,1,.24.14,6.76,6.76,0,0,0,.7.49c1,.54,2.07,1.07,3.11,1.59a.24.24,0,0,0,.28-.06,3.07,3.07,0,0,0,.49-.74,4.62,4.62,0,0,0-.78-4.57,7.49,7.49,0,0,0-1-1l.37-.17c.33-.09.66-.15,1-.26a.65.65,0,0,0,.46-.8.61.61,0,0,0,0-.12,2.78,2.78,0,0,0-1.57-1.42c-.47-.18-1-.29-1.42-.46a.71.71,0,0,1-.3-.27,9.54,9.54,0,0,0-.8-1.09,11.19,11.19,0,0,0-1.26-.91.92.92,0,0,1-.45-.69,2.17,2.17,0,0,1,1-2.17c.45-.3.91-.59,1.37-.86a7.52,7.52,0,0,0,2.83-2.77,2.57,2.57,0,0,1,1.18-1.08,18.2,18.2,0,0,0,4.69-3.22,1.46,1.46,0,0,1,.72-.44c.49-.08,1-.21,1.46-.26a28.94,28.94,0,0,1,5.66.07c1.38.14,2.76.32,4.13.49,1.8.21,3.6.45,5.4.65,1.59.17,3.18.33,4.78.42a40,40,0,0,0,5.79,0,26.31,26.31,0,0,0,4.66-.75,43,43,0,0,1,9-1.5,25.38,25.38,0,0,1,6.68.46,8.72,8.72,0,0,1,2.87,1.06.52.52,0,0,1,.27.45c.14,1.35.28,2.7.46,4a25.64,25.64,0,0,1,.42,5.1,5.53,5.53,0,0,1-.69,2.48c-1.29,2.24-2.57,4.48-3.83,6.74a11.24,11.24,0,0,0-1.37,3.39,2.25,2.25,0,0,1-.07.52c-.4.81-.81,1.61-1.25,2.39-.22.39-.51.74-.8,1.15,1,.15,1.89.31,2.81.43a10.62,10.62,0,0,0,3.73,0,3.06,3.06,0,0,0,2.44-1.9h0c.21.14.4.3.61.42a1,1,0,0,0,1.36-.38,1,1,0,0,0,.13-.52,11.69,11.69,0,0,1,.11-1.77,15.64,15.64,0,0,1,1.13-4.51,18.9,18.9,0,0,1,4.8-6.53,3.34,3.34,0,0,1,1.27-.58l1-.29a2,2,0,0,0,1.41-1.11,16,16,0,0,0,.73-2c.16-.61.2-1.26.3-1.9a2.45,2.45,0,0,1,2.07.93c.26.37.45.79.72,1.16s.69.84,1,1.26a4.74,4.74,0,0,1,.66.82,12.07,12.07,0,0,1,1,4.66c.07,1,0,2,0,3,0,1.16,0,2.32.07,3.47a2.12,2.12,0,0,1-.24,1.21c-.45.82-.92,1.62-1.38,2.43-.37.63-.32.77.42.89a12.24,12.24,0,0,0,5.35-.27,3.46,3.46,0,0,0,2.67-2.09c.23.09.44.19.67.26a.71.71,0,0,0,.88-.49.5.5,0,0,0,0-.12,3.82,3.82,0,0,0-.33-2,23.92,23.92,0,0,1-1.94-6.47,7.83,7.83,0,0,1,1.55-6,1.62,1.62,0,0,0,.38-1.3.54.54,0,0,1,.13-.54,2.87,2.87,0,0,0,.57-2.57,12.36,12.36,0,0,0-.9-2,10.82,10.82,0,0,1-1.4-3.41,1,1,0,0,1,0-.58c1.23-2.1,2.49-4.18,3.73-6.28a25.48,25.48,0,0,0,2.73-5.54c.6-1.95,1.08-3.95,1.66-5.91a35.4,35.4,0,0,0,1.4-9.32,9.75,9.75,0,0,0,5.42,1.21c.19.24.39.47.6.7a11.81,11.81,0,0,0,4.75,3.08,10.52,10.52,0,0,0,10.56-2,9.47,9.47,0,0,0,2.66-9.64A1.93,1.93,0,0,0,803.71,218.69Zm-12.61,3.56c-.15.14-.3.28-.46.41l-.1.08-.32.21a9.48,9.48,0,0,1-1,.52,3.78,3.78,0,0,1-.17-.35,12.63,12.63,0,0,1-.76-2.77,10.63,10.63,0,0,1,0-2.11,6.77,6.77,0,0,1,.35-1.32,4.23,4.23,0,0,1,.25-.47,1.27,1.27,0,0,1,.13-.19l.07-.08a3.7,3.7,0,0,1,.28-.28,2.88,2.88,0,0,1,.38-.22,2.42,2.42,0,0,1,.36-.1,3.69,3.69,0,0,1,.47,0,4.24,4.24,0,0,1,.61.17,2.87,2.87,0,0,1,.48.28l.1.06.2.18a2.44,2.44,0,0,1,.27.29,3.6,3.6,0,0,1,.31.54,5.09,5.09,0,0,1,.23.85,7,7,0,0,1,0,1.12,8,8,0,0,1-.35,1.27,7.19,7.19,0,0,1-.66,1.14l-.11.15-.12.14a4.9,4.9,0,0,1-.44.48Z" transform="translate(-21 -1.41)"/><path d="M1028.71,357.69a1.92,1.92,0,0,0-1.34,2.35,7,7,0,0,1,.25,1,7.27,7.27,0,0,1,0,1.32,8,8,0,0,1-.42,1.5,7.46,7.46,0,0,1-.55,1l-.2.3-.06.07c-.12.15-.25.29-.38.43s-.34.34-.52.49l-.11.1-.14.1a7.94,7.94,0,0,1-1.1.62,8.45,8.45,0,0,1-1.64.44,9.55,9.55,0,0,1-2,0,10.78,10.78,0,0,1-2-.55,9.25,9.25,0,0,1-1.5-.86l-.17-.11-.25-.22.54-.32a9.44,9.44,0,0,0,4.5-7.42,6.78,6.78,0,0,0-.45-2.92,6.27,6.27,0,0,0-1.69-2.52,6.58,6.58,0,0,0-2.6-1.43,5.49,5.49,0,0,0-5.44,1.45,8.52,8.52,0,0,0-2,6,12.48,12.48,0,0,0,.81,4.31v.06a6.75,6.75,0,0,1-.76-.25,6.61,6.61,0,0,1-1-.57,4,4,0,0,1-.34-.23l-.4-.33-.53-.53-.33-.41-.06-.09a7.34,7.34,0,0,1-.66-2.52c0-.33,0-.45.37-.54a4,4,0,0,0,3-4.35,5,5,0,0,0-5.17-4.53c-.78,0-1.56.13-2.34.19a.52.52,0,0,1-.34-.09c-.61-.43-1.19-.92-1.83-1.31-2.28-1.39-4.61-2.7-6.87-4.11s-4.18-2.75-6.29-4.08a53.06,53.06,0,0,0-11-5.36,42.76,42.76,0,0,0-10.85-2.19c-2-.15-4.09-.27-6.13-.4-2.2-.14-4.4-.32-6.6-.43s-4.63-.21-6.94-.25c-3.12-.06-6.24-.06-9.37-.08s-6.2,0-9.3,0-6.07-.2-9.1-.31l-.63-.06h-2.24l-.43.06c-1.07.07-2.14.12-3.21.2a34.82,34.82,0,0,0-5.65,1,63.22,63.22,0,0,0-7.8,2.62c-3.79,1.53-7.48,3.28-11.13,5.1-1.54.76-3,1.57-4.6,2.31-2,1-4.08,1.86-6.09,2.84a76.48,76.48,0,0,0-10.79,6.38,49.7,49.7,0,0,0-5,4.05c-.66.62-1.28,1.27-1.92,1.9a.65.65,0,0,1-.63.26,26.07,26.07,0,0,1-5.12-1.55,3.52,3.52,0,0,1-.88-.65c-.27-.25-.45-.58-.72-.81a7.81,7.81,0,0,0-1.36-1,1.14,1.14,0,0,0-1.56.42l-.06.12a3.32,3.32,0,0,0-.25,1.12v1.36H847a.91.91,0,0,0-1,.8,1,1,0,0,0,0,.25,4,4,0,0,0,.23.95,6.77,6.77,0,0,0,1.52,2.32,24.7,24.7,0,0,1,2.73,3.39,5.7,5.7,0,0,0,.9,1,6.59,6.59,0,0,0,3.39,1.62,1.87,1.87,0,0,1,1.41.72.62.62,0,0,1,.08.33c0,.4,0,.81,0,1.21.12.9.28,1.8.46,2.69a27.44,27.44,0,0,1,.81,4.68,4.19,4.19,0,0,1-.82,3,1.7,1.7,0,0,1-1.15.72,1.52,1.52,0,0,0-1.51,1.4c0,.21-.14.3-.37.29a1.44,1.44,0,0,0-1.34.65,1.08,1.08,0,0,1-1,.42A9.89,9.89,0,0,1,850,382c-1.06-.16-1.15.29-.94,1.09s.49,1.6.72,2.4a3.5,3.5,0,0,1,.13.85c0,.88-.07,1.75,0,2.62a2.57,2.57,0,0,0,2.48,2.66,2.68,2.68,0,0,0,.4,0,1.71,1.71,0,0,1,1.12.32,3.52,3.52,0,0,1,1.39,1.42c-.23.19-.47.37-.69.56a.61.61,0,0,0-.25.81.74.74,0,0,0,.16.19,4.71,4.71,0,0,0,3,1.52,9.61,9.61,0,0,0,2.62-.22,8.86,8.86,0,0,1,4.37.18,29.17,29.17,0,0,0,8,1.61,22.29,22.29,0,0,0,4-.18,17.12,17.12,0,0,0,5.32-1.59,3.19,3.19,0,0,1,2.65-.13,25.27,25.27,0,0,1,2.32,1.18,3.8,3.8,0,0,0,2.93.56c.61-.17.85-.05,1.23.5a6.78,6.78,0,0,1,1,3.8v3a26.25,26.25,0,0,0,.25,2.75,2.07,2.07,0,0,1,.06.61c-.41,1.52-.83,3-1.3,4.54a5.8,5.8,0,0,1-2,3.06,4.12,4.12,0,0,0-.93,1.18c-.19.34-.36.7-.54,1.06a12.27,12.27,0,0,1-2,3,7,7,0,0,0,1,.47,8.79,8.79,0,0,0,6.15-.64,2.13,2.13,0,0,1,1.71-.22.93.93,0,0,0,1.15-.45,3.25,3.25,0,0,0,.33-.57c.18-.56.36-1.12.49-1.69.26-1.12.49-2.25.7-3.38a14.74,14.74,0,0,1,1.72-4.91,9.58,9.58,0,0,0,1.19-2.65c.09-.38.14-.76.21-1.15h.14a1.76,1.76,0,0,1,1.54,1.24c.21.57.35,1.17.52,1.76a4.49,4.49,0,0,0,1.5,2.48,4.74,4.74,0,0,1,1,1,5.94,5.94,0,0,0,4.26,2.65.72.72,0,0,1,.24.14,6.76,6.76,0,0,0,.7.49c1,.54,2.07,1.07,3.11,1.59a.24.24,0,0,0,.28-.06,3.07,3.07,0,0,0,.49-.74,4.62,4.62,0,0,0-.78-4.57,7.49,7.49,0,0,0-1-1l.37-.17c.33-.09.66-.15,1-.26a.65.65,0,0,0,.46-.8.61.61,0,0,0,0-.12,2.78,2.78,0,0,0-1.57-1.42c-.47-.18-1-.29-1.42-.46a.71.71,0,0,1-.3-.27,9.54,9.54,0,0,0-.8-1.09,11.19,11.19,0,0,0-1.26-.91.92.92,0,0,1-.45-.69,2.17,2.17,0,0,1,1-2.17c.45-.3.91-.59,1.37-.86a7.52,7.52,0,0,0,2.83-2.77,2.57,2.57,0,0,1,1.18-1.08,18.2,18.2,0,0,0,4.69-3.22,1.46,1.46,0,0,1,.72-.44c.49-.08,1-.21,1.46-.26a28.94,28.94,0,0,1,5.66.07c1.38.14,2.76.32,4.13.49,1.8.21,3.6.45,5.4.65,1.59.17,3.18.33,4.78.42a40,40,0,0,0,5.79,0,26.31,26.31,0,0,0,4.66-.75,43,43,0,0,1,9-1.5,25.38,25.38,0,0,1,6.68.46,8.72,8.72,0,0,1,2.87,1.06.52.52,0,0,1,.27.45c.14,1.35.28,2.7.46,4a25.64,25.64,0,0,1,.42,5.1,5.53,5.53,0,0,1-.69,2.48c-1.29,2.24-2.57,4.48-3.83,6.74a11.24,11.24,0,0,0-1.37,3.39,2.25,2.25,0,0,1-.07.52c-.4.81-.81,1.61-1.25,2.39-.22.39-.51.74-.8,1.15,1,.15,1.89.31,2.81.43a10.62,10.62,0,0,0,3.73,0,3.06,3.06,0,0,0,2.44-1.9h0c.21.14.4.3.61.42a1,1,0,0,0,1.36-.38,1,1,0,0,0,.13-.52,11.69,11.69,0,0,1,.11-1.77,15.64,15.64,0,0,1,1.13-4.51,18.9,18.9,0,0,1,4.8-6.53,3.34,3.34,0,0,1,1.27-.58l1-.29a2,2,0,0,0,1.41-1.11,16,16,0,0,0,.73-2c.16-.61.2-1.26.3-1.9a2.45,2.45,0,0,1,2.07.93c.26.37.45.79.72,1.16s.69.84,1,1.26a4.74,4.74,0,0,1,.66.82,12.07,12.07,0,0,1,1,4.66c.07,1,0,2,0,3,0,1.16,0,2.32.07,3.47a2.12,2.12,0,0,1-.24,1.21c-.45.82-.92,1.62-1.38,2.43-.37.63-.32.77.42.89a12.24,12.24,0,0,0,5.35-.27,3.44,3.44,0,0,0,2.67-2.09c.23.09.44.19.67.26a.71.71,0,0,0,.88-.49.5.5,0,0,0,0-.12,3.82,3.82,0,0,0-.33-2,23.92,23.92,0,0,1-1.94-6.47,7.83,7.83,0,0,1,1.55-6,1.62,1.62,0,0,0,.38-1.3.54.54,0,0,1,.13-.54,2.87,2.87,0,0,0,.57-2.57,12.36,12.36,0,0,0-.9-2,10.82,10.82,0,0,1-1.4-3.41,1,1,0,0,1,0-.58c1.23-2.1,2.49-4.18,3.73-6.28a25.48,25.48,0,0,0,2.73-5.54c.6-1.95,1.08-3.95,1.66-5.91a35.4,35.4,0,0,0,1.4-9.32,9.75,9.75,0,0,0,5.42,1.21c.19.24.39.47.6.7a11.81,11.81,0,0,0,4.75,3.08,10.52,10.52,0,0,0,10.56-2,9.47,9.47,0,0,0,2.66-9.64A1.93,1.93,0,0,0,1028.71,357.69Zm-12.61,3.56c-.15.14-.3.28-.46.41l-.1.08-.32.21a9.48,9.48,0,0,1-1,.52,3.78,3.78,0,0,1-.17-.35,12.63,12.63,0,0,1-.76-2.77,9.31,9.31,0,0,1,0-2.11,6.77,6.77,0,0,1,.35-1.32,4.23,4.23,0,0,1,.25-.47,1.27,1.27,0,0,1,.13-.19l.07-.08a3.7,3.7,0,0,1,.28-.28,2.88,2.88,0,0,1,.38-.22,2.42,2.42,0,0,1,.36-.1h.47a4.24,4.24,0,0,1,.61.17,2.87,2.87,0,0,1,.48.28l.1.06.2.18a2.44,2.44,0,0,1,.27.29,3.6,3.6,0,0,1,.31.54,5.09,5.09,0,0,1,.23.85,7,7,0,0,1,0,1.12,8,8,0,0,1-.35,1.27,7.19,7.19,0,0,1-.66,1.14l-.11.15-.12.14A4.9,4.9,0,0,1,1016.1,361.25Z" transform="translate(-21 -1.41)"/><path d="M608.71,520.69a1.92,1.92,0,0,0-1.34,2.35,7,7,0,0,1,.25,1,7.28,7.28,0,0,1,0,1.32,8,8,0,0,1-.42,1.5,7.46,7.46,0,0,1-.55,1l-.2.3-.06.07c-.12.15-.25.29-.38.43s-.34.34-.52.49l-.11.1-.14.1a7.94,7.94,0,0,1-1.1.62,8.45,8.45,0,0,1-1.64.44,9.55,9.55,0,0,1-2,0,10.78,10.78,0,0,1-2-.55A9.25,9.25,0,0,1,597,529l-.17-.11-.25-.22.54-.32a9.44,9.44,0,0,0,4.5-7.42,6.78,6.78,0,0,0-.45-2.92,6.27,6.27,0,0,0-1.69-2.52,6.58,6.58,0,0,0-2.6-1.43,5.49,5.49,0,0,0-5.44,1.45,8.52,8.52,0,0,0-2,6,12.48,12.48,0,0,0,.81,4.31v.06a6.75,6.75,0,0,1-.76-.25,6.61,6.61,0,0,1-1-.57,4,4,0,0,1-.34-.23l-.4-.33-.53-.53-.33-.41-.06-.09a7.34,7.34,0,0,1-.66-2.52c0-.33,0-.45.37-.54a4,4,0,0,0,3-4.35,5,5,0,0,0-5.17-4.53c-.78,0-1.56.13-2.34.19a.52.52,0,0,1-.34-.09c-.61-.43-1.19-.92-1.83-1.31-2.28-1.39-4.61-2.7-6.87-4.11s-4.18-2.75-6.29-4.08a53.06,53.06,0,0,0-11-5.36,42.76,42.76,0,0,0-10.85-2.19c-2-.15-4.09-.27-6.13-.4-2.2-.14-4.4-.32-6.6-.43s-4.63-.21-6.94-.25c-3.12-.06-6.24-.06-9.37-.08s-6.2,0-9.3,0-6.07-.2-9.1-.31l-.63-.06h-2.24l-.43.06c-1.07.07-2.14.12-3.21.2a34.82,34.82,0,0,0-5.65,1,63.22,63.22,0,0,0-7.8,2.62c-3.79,1.53-7.48,3.28-11.13,5.1-1.54.76-3,1.57-4.6,2.31-2,1-4.08,1.86-6.09,2.84a76.48,76.48,0,0,0-10.79,6.38,49.21,49.21,0,0,0-5,4c-.66.62-1.28,1.27-1.92,1.9a.65.65,0,0,1-.63.26,26.07,26.07,0,0,1-5.12-1.55,3.52,3.52,0,0,1-.88-.65c-.27-.25-.45-.58-.72-.81a7.81,7.81,0,0,0-1.36-1,1.14,1.14,0,0,0-1.56.42l-.06.12a3.32,3.32,0,0,0-.25,1.12v1.36H427a.91.91,0,0,0-1,.81.61.61,0,0,0,0,.19,3.82,3.82,0,0,0,.23,1,6.77,6.77,0,0,0,1.52,2.32,24.7,24.7,0,0,1,2.73,3.39,5.7,5.7,0,0,0,.9,1,6.59,6.59,0,0,0,3.39,1.62,1.87,1.87,0,0,1,1.41.72.62.62,0,0,1,.08.33c0,.4,0,.81,0,1.21.12.9.28,1.8.46,2.69a27.44,27.44,0,0,1,.81,4.68,4.19,4.19,0,0,1-.82,3,1.7,1.7,0,0,1-1.15.72,1.52,1.52,0,0,0-1.51,1.4c0,.21-.14.3-.37.29a1.44,1.44,0,0,0-1.34.65,1.08,1.08,0,0,1-1,.42A9.89,9.89,0,0,1,430,545c-1.06-.16-1.15.29-.94,1.09s.49,1.6.72,2.4a3.5,3.5,0,0,1,.13.85c0,.88-.07,1.75,0,2.62a2.57,2.57,0,0,0,2.48,2.66,2.68,2.68,0,0,0,.4,0,1.71,1.71,0,0,1,1.12.32,3.52,3.52,0,0,1,1.39,1.42c-.23.19-.47.37-.69.56a.61.61,0,0,0-.25.81.74.74,0,0,0,.16.19,4.71,4.71,0,0,0,3,1.52,9.61,9.61,0,0,0,2.62-.22,8.86,8.86,0,0,1,4.37.18,29.17,29.17,0,0,0,8,1.61,22.25,22.25,0,0,0,4-.18,17,17,0,0,0,5.32-1.59,3.19,3.19,0,0,1,2.65-.13,25.27,25.27,0,0,1,2.32,1.18,3.8,3.8,0,0,0,2.93.56c.61-.17.85,0,1.23.5a6.78,6.78,0,0,1,1,3.8v3a26.25,26.25,0,0,0,.25,2.75,2.07,2.07,0,0,1,.06.61c-.41,1.52-.83,3-1.3,4.54a5.8,5.8,0,0,1-2,3.06,4.12,4.12,0,0,0-.93,1.18c-.19.34-.36.7-.54,1.06a12.09,12.09,0,0,1-2.05,3,7,7,0,0,0,1,.47,8.79,8.79,0,0,0,6.15-.64,2.13,2.13,0,0,1,1.71-.22.93.93,0,0,0,1.15-.45,3.25,3.25,0,0,0,.33-.57c.18-.56.36-1.12.49-1.69.26-1.12.49-2.25.7-3.38a14.74,14.74,0,0,1,1.72-4.91,9.58,9.58,0,0,0,1.19-2.65c.09-.38.14-.76.21-1.15h.14a1.76,1.76,0,0,1,1.54,1.24c.21.57.35,1.17.52,1.76a4.49,4.49,0,0,0,1.5,2.48,4.74,4.74,0,0,1,1.05,1,5.94,5.94,0,0,0,4.26,2.65.72.72,0,0,1,.24.14,6.76,6.76,0,0,0,.7.49c1,.54,2.07,1.07,3.11,1.59a.24.24,0,0,0,.28-.06,3.07,3.07,0,0,0,.49-.74,4.62,4.62,0,0,0-.78-4.57,7.87,7.87,0,0,0-1-1l.37-.17c.33-.09.66-.15,1-.26a.65.65,0,0,0,.46-.8.61.61,0,0,0-.05-.12,2.78,2.78,0,0,0-1.57-1.42c-.47-.18-1-.29-1.42-.46a.71.71,0,0,1-.3-.27,9.54,9.54,0,0,0-.8-1.09,11.19,11.19,0,0,0-1.26-.91.92.92,0,0,1-.45-.69,2.17,2.17,0,0,1,1-2.17c.45-.3.91-.59,1.37-.86a7.52,7.52,0,0,0,2.83-2.77,2.57,2.57,0,0,1,1.18-1.08,18.2,18.2,0,0,0,4.69-3.22,1.46,1.46,0,0,1,.72-.44c.49-.08,1-.21,1.46-.26a28.94,28.94,0,0,1,5.66.07c1.38.14,2.76.32,4.13.49,1.8.21,3.6.45,5.4.65,1.59.17,3.18.33,4.78.42a40,40,0,0,0,5.79,0,26.31,26.31,0,0,0,4.66-.75,43,43,0,0,1,9-1.5,25.38,25.38,0,0,1,6.68.46,8.72,8.72,0,0,1,2.87,1.06.52.52,0,0,1,.27.45c.14,1.35.28,2.7.46,4a25.64,25.64,0,0,1,.42,5.1,5.53,5.53,0,0,1-.69,2.48c-1.29,2.24-2.57,4.48-3.83,6.74a11.24,11.24,0,0,0-1.37,3.39,2.25,2.25,0,0,1-.07.52c-.4.81-.81,1.61-1.25,2.39-.22.39-.51.74-.8,1.15,1,.15,1.89.31,2.81.43a10.62,10.62,0,0,0,3.73,0,3.06,3.06,0,0,0,2.44-1.9h0c.21.14.4.3.61.42a1,1,0,0,0,1.36-.38,1,1,0,0,0,.13-.52,11.69,11.69,0,0,1,.11-1.77,15.64,15.64,0,0,1,1.13-4.51,18.9,18.9,0,0,1,4.8-6.53,3.34,3.34,0,0,1,1.27-.58l1-.29a2,2,0,0,0,1.41-1.11,16,16,0,0,0,.73-2c.16-.61.2-1.26.3-1.9a2.45,2.45,0,0,1,2.07.93c.26.37.45.79.72,1.16s.69.84,1,1.26a4.74,4.74,0,0,1,.66.82,12.07,12.07,0,0,1,1,4.66c.07,1,0,2,0,3,0,1.16,0,2.32.07,3.47a2.12,2.12,0,0,1-.24,1.21c-.45.82-.92,1.62-1.38,2.43-.37.63-.32.77.42.89a12.24,12.24,0,0,0,5.35-.27,3.46,3.46,0,0,0,2.67-2.09c.23.09.44.19.67.26a.71.71,0,0,0,.88-.49.5.5,0,0,0,0-.12,3.82,3.82,0,0,0-.33-2,23.92,23.92,0,0,1-1.94-6.47,7.83,7.83,0,0,1,1.55-6A1.62,1.62,0,0,0,579,565a.54.54,0,0,1,.13-.54,2.87,2.87,0,0,0,.57-2.57,12.36,12.36,0,0,0-.9-2,10.82,10.82,0,0,1-1.4-3.41,1,1,0,0,1,0-.58c1.23-2.1,2.49-4.18,3.73-6.28a25.48,25.48,0,0,0,2.73-5.54c.6-2,1.08-4,1.66-5.91a35.4,35.4,0,0,0,1.4-9.32,9.75,9.75,0,0,0,5.42,1.21c.19.24.39.47.6.7a11.81,11.81,0,0,0,4.75,3.08,10.52,10.52,0,0,0,10.56-2,9.47,9.47,0,0,0,2.66-9.64A1.93,1.93,0,0,0,608.71,520.69Zm-12.61,3.56c-.15.14-.3.28-.46.41l-.1.08-.32.21a9.48,9.48,0,0,1-1,.52,3.78,3.78,0,0,1-.17-.35,12.63,12.63,0,0,1-.76-2.77,10.63,10.63,0,0,1,0-2.11,6.77,6.77,0,0,1,.35-1.32,4.23,4.23,0,0,1,.25-.47,1.27,1.27,0,0,1,.13-.19l.07-.08.28-.28a2.88,2.88,0,0,1,.38-.22,2.42,2.42,0,0,1,.36-.1h.47a4.24,4.24,0,0,1,.61.17,2.87,2.87,0,0,1,.48.28l.1.06.2.18a2.44,2.44,0,0,1,.27.29,3.6,3.6,0,0,1,.31.54,5.09,5.09,0,0,1,.23.85,7,7,0,0,1,0,1.12,8,8,0,0,1-.35,1.27,7.19,7.19,0,0,1-.66,1.14l-.11.15-.12.14a4.9,4.9,0,0,1-.44.48Z" transform="translate(-21 -1.41)"/><path class="cls-4" d="M443.42,371a9.47,9.47,0,0,0,2.67,9.64,10.49,10.49,0,0,0,10.55,2,11.81,11.81,0,0,0,4.75-3.08c.21-.23.41-.46.6-.7a10,10,0,0,0,3.27-.33,9.82,9.82,0,0,0,2.15-.88,35.4,35.4,0,0,0,1.4,9.32c.58,2,1.06,4,1.66,5.91a25.48,25.48,0,0,0,2.73,5.54c1.24,2.1,2.5,4.18,3.73,6.28a.89.89,0,0,1,.05.58,10.82,10.82,0,0,1-1.4,3.41,12.36,12.36,0,0,0-.9,2,2.87,2.87,0,0,0,.57,2.57.54.54,0,0,1,.13.54,1.62,1.62,0,0,0,.38,1.3,9,9,0,0,1,1.35,2.68,8.79,8.79,0,0,1,.2,3.35,23.92,23.92,0,0,1-1.94,6.47,3.82,3.82,0,0,0-.33,2,.73.73,0,0,0,.8.63l.1,0c.23-.07.44-.17.67-.26a3.46,3.46,0,0,0,2.67,2.09,12.29,12.29,0,0,0,5.36.27c.73-.12.79-.26.42-.89-.47-.81-.94-1.61-1.39-2.43a2.12,2.12,0,0,1-.24-1.21c.06-1.15.06-2.31.07-3.47,0-1-.05-2,0-3a12.07,12.07,0,0,1,1-4.66,4.74,4.74,0,0,1,.66-.82c.36-.42.73-.82,1-1.26s.46-.79.72-1.16a2.45,2.45,0,0,1,2.07-.93c.1.64.14,1.29.3,1.9a16,16,0,0,0,.73,2,2,2,0,0,0,1.41,1.11l1,.29a3.23,3.23,0,0,1,1.26.58,18.9,18.9,0,0,1,4.8,6.53,15.64,15.64,0,0,1,1.13,4.51,11.69,11.69,0,0,1,.11,1.77,1,1,0,0,0,1,1,1.06,1.06,0,0,0,.52-.13c.21-.12.4-.28.61-.42h.05a3.06,3.06,0,0,0,2.44,1.9,10.62,10.62,0,0,0,3.73,0c.92-.12,1.84-.28,2.81-.43-.29-.41-.58-.76-.8-1.15-.44-.78-.85-1.58-1.25-2.39a2.25,2.25,0,0,1-.07-.52,11.24,11.24,0,0,0-1.37-3.39c-1.26-2.26-2.54-4.5-3.83-6.74a5.53,5.53,0,0,1-.69-2.48,25.64,25.64,0,0,1,.42-5.1c.18-1.34.32-2.69.46-4a.52.52,0,0,1,.27-.45,8.72,8.72,0,0,1,2.87-1.06,25.38,25.38,0,0,1,6.68-.46,43,43,0,0,1,9,1.5,26.31,26.31,0,0,0,4.66.75,40,40,0,0,0,5.79,0c1.6-.09,3.19-.25,4.78-.42,1.8-.2,3.6-.44,5.4-.65,1.37-.17,2.75-.35,4.13-.49A28.94,28.94,0,0,1,553,406c.49.05,1,.18,1.46.26a1.46,1.46,0,0,1,.72.44,18.25,18.25,0,0,0,4.7,3.22A2.66,2.66,0,0,1,561,411a7.52,7.52,0,0,0,2.83,2.77c.46.27.92.56,1.37.86a2.17,2.17,0,0,1,1,2.17,1,1,0,0,1-.46.69,11.19,11.19,0,0,0-1.26.91,7.77,7.77,0,0,0-.79,1.09.74.74,0,0,1-.31.27c-.47.17-.95.28-1.41.46a2.76,2.76,0,0,0-1.58,1.42.66.66,0,0,0,.31.88l.1,0c.32.11.65.17,1,.26.13,0,.26.12.38.17a6.9,6.9,0,0,0-1,.95,4.62,4.62,0,0,0-.78,4.57,3.07,3.07,0,0,0,.49.74.24.24,0,0,0,.28.06c1-.52,2.08-1.05,3.11-1.59a6.76,6.76,0,0,0,.7-.49.72.72,0,0,1,.24-.14,5.94,5.94,0,0,0,4.26-2.65,4.74,4.74,0,0,1,1-1A4.52,4.52,0,0,0,572,421c.17-.59.32-1.19.52-1.76a1.76,1.76,0,0,1,1.54-1.24h.14c.07.39.12.77.21,1.15a9.58,9.58,0,0,0,1.19,2.65,14.31,14.31,0,0,1,1.72,4.91c.21,1.13.44,2.26.7,3.38.13.57.31,1.13.49,1.69a3.25,3.25,0,0,0,.33.57.93.93,0,0,0,1.15.45,2.13,2.13,0,0,1,1.71.22,8.79,8.79,0,0,0,6.15.64,7.58,7.58,0,0,0,1-.47,11.86,11.86,0,0,1-2.06-3c-.18-.36-.35-.72-.54-1.06a4.12,4.12,0,0,0-.93-1.18,5.8,5.8,0,0,1-2-3.06c-.47-1.5-.88-3-1.3-4.54a2.07,2.07,0,0,1,.06-.61c.09-.92.21-1.83.25-2.75s0-2,0-3a6.78,6.78,0,0,1,1-3.8c.38-.55.62-.67,1.23-.5a3.8,3.8,0,0,0,2.93-.56c.77-.41,1.52-.85,2.32-1.18a3.19,3.19,0,0,1,2.65.13,17.12,17.12,0,0,0,5.32,1.59,22.29,22.29,0,0,0,4,.18,29.17,29.17,0,0,0,8-1.61,8.82,8.82,0,0,1,4.36-.18,9.69,9.69,0,0,0,2.63.22,4.62,4.62,0,0,0,3-1.52.6.6,0,0,0,.1-.84.58.58,0,0,0-.19-.16c-.22-.19-.46-.37-.69-.56a3.52,3.52,0,0,1,1.39-1.42,1.71,1.71,0,0,1,1.12-.32,2.58,2.58,0,0,0,2.87-2.25,2.55,2.55,0,0,0,0-.39c.07-.87,0-1.74,0-2.62a3.5,3.5,0,0,1,.13-.85c.23-.8.51-1.59.72-2.4s.12-1.25-.94-1.09c-.44.06-.88.14-1.33.18a1.08,1.08,0,0,1-1-.42,1.44,1.44,0,0,0-1.34-.65c-.23,0-.34-.08-.37-.29a1.52,1.52,0,0,0-1.51-1.4,1.7,1.7,0,0,1-1.15-.72,4.19,4.19,0,0,1-.82-3,27.44,27.44,0,0,1,.81-4.68c.18-.89.34-1.79.46-2.69,0-.4,0-.81,0-1.21a.62.62,0,0,1,.08-.33,1.87,1.87,0,0,1,1.41-.72,6.59,6.59,0,0,0,3.39-1.62,5.7,5.7,0,0,0,.9-1,26.13,26.13,0,0,1,2.73-3.39,6.77,6.77,0,0,0,1.52-2.32,4,4,0,0,0,.23-1,.91.91,0,0,0-.75-1,.7.7,0,0,0-.25,0h-.25v-1.36a3.32,3.32,0,0,0-.25-1.12,1.14,1.14,0,0,0-1.5-.6l-.12.06a7.81,7.81,0,0,0-1.36,1c-.27.23-.45.56-.72.81a3.52,3.52,0,0,1-.88.65,26.07,26.07,0,0,1-5.12,1.55.65.65,0,0,1-.63-.26c-.64-.63-1.26-1.28-1.92-1.9a49.7,49.7,0,0,0-5-4.05A75.92,75.92,0,0,0,598.77,356c-2-1-4.07-1.87-6.09-2.84-1.55-.74-3.06-1.55-4.6-2.31-3.65-1.82-7.34-3.57-11.13-5.1a63.22,63.22,0,0,0-7.8-2.62,34.82,34.82,0,0,0-5.65-1c-1.07-.08-2.14-.13-3.21-.2L560,342h-2.24l-.63.06c-3,.11-6.06.25-9.1.31s-6.2,0-9.3,0-6.25,0-9.37.08c-2.31,0-4.63.14-6.94.25s-4.4.29-6.6.43c-2,.13-4.09.25-6.13.4a42.76,42.76,0,0,0-10.85,2.19,52.57,52.57,0,0,0-11,5.36c-2.12,1.33-4.17,2.76-6.29,4.08s-4.59,2.72-6.88,4.11c-.64.39-1.22.88-1.83,1.31a.49.49,0,0,1-.33.09c-.79-.06-1.57-.18-2.35-.19A5,5,0,0,0,465,365a4,4,0,0,0,3,4.35c.34.09.41.21.37.54a7.34,7.34,0,0,1-.66,2.52l-.06.09-.33.41-.53.53-.4.33L466,374a7.59,7.59,0,0,1-1,.57,6.75,6.75,0,0,1-.76.25v-.06a12.48,12.48,0,0,0,.81-4.31,8.52,8.52,0,0,0-2-6,5.49,5.49,0,0,0-5.44-1.45,6.58,6.58,0,0,0-2.6,1.43,6.27,6.27,0,0,0-1.69,2.52,6.78,6.78,0,0,0-.45,2.92,9.44,9.44,0,0,0,4.5,7.42l.54.32-.25.22-.17.11a9.6,9.6,0,0,1-1.49.86,10.06,10.06,0,0,1-2,.55,9.08,9.08,0,0,1-1.95,0,8.45,8.45,0,0,1-1.64-.44,7.94,7.94,0,0,1-1.1-.62l-.14-.1-.11-.1c-.18-.15-.35-.32-.52-.49s-.26-.28-.38-.43l-.06-.07-.2-.3a7.46,7.46,0,0,1-.55-1,8,8,0,0,1-.42-1.5,7.28,7.28,0,0,1,0-1.32,7,7,0,0,1,.25-1,1.92,1.92,0,0,0-3.69-1Zm14.5,1.76-.12-.14-.11-.15a7.19,7.19,0,0,1-.66-1.14,8,8,0,0,1-.35-1.27,7,7,0,0,1,0-1.12,6.28,6.28,0,0,1,.23-.85,3.6,3.6,0,0,1,.31-.54l.27-.29.2-.18.1-.06a3,3,0,0,1,.49-.28,4.5,4.5,0,0,1,.6-.17h.47a2.42,2.42,0,0,1,.36.1,2.88,2.88,0,0,1,.38.22l.28.28.07.08a1.27,1.27,0,0,1,.13.19,3,3,0,0,1,.25.47,6.77,6.77,0,0,1,.35,1.32,9.31,9.31,0,0,1,0,2.11,12.63,12.63,0,0,1-.76,2.77,3.78,3.78,0,0,1-.17.35c-.33-.16-.64-.33-.95-.52l-.31-.21-.11-.08c-.16-.13-.31-.27-.46-.41s-.34-.31-.49-.47Z" transform="translate(-21 -1.41)"/><path class="cls-5" d="M420.71,667.69a1.92,1.92,0,0,0-1.34,2.35,7,7,0,0,1,.25,1,7.28,7.28,0,0,1,0,1.32,8,8,0,0,1-.42,1.5,7.46,7.46,0,0,1-.55,1l-.2.3-.06.07c-.12.15-.25.29-.38.43s-.34.34-.52.49l-.11.1-.14.1a7.94,7.94,0,0,1-1.1.62,8.45,8.45,0,0,1-1.64.44,9.08,9.08,0,0,1-1.95,0,10.78,10.78,0,0,1-2-.55A8.72,8.72,0,0,1,409,676l-.17-.11-.25-.22.54-.32a9.44,9.44,0,0,0,4.5-7.42,6.78,6.78,0,0,0-.45-2.92,6.27,6.27,0,0,0-1.69-2.52,6.58,6.58,0,0,0-2.6-1.43,5.49,5.49,0,0,0-5.44,1.45,8.52,8.52,0,0,0-2,6,12.48,12.48,0,0,0,.81,4.31v.06a6.75,6.75,0,0,1-.76-.25,6.61,6.61,0,0,1-1-.57,4,4,0,0,1-.34-.23l-.4-.33-.53-.53-.33-.41-.06-.09a7.34,7.34,0,0,1-.66-2.52c0-.33,0-.45.37-.54a4,4,0,0,0,3-4.35,5,5,0,0,0-5.17-4.53c-.78,0-1.56.13-2.34.19a.52.52,0,0,1-.34-.09c-.61-.43-1.19-.92-1.83-1.31-2.28-1.39-4.61-2.7-6.87-4.11s-4.18-2.75-6.29-4.08a53.06,53.06,0,0,0-11-5.36,42.76,42.76,0,0,0-10.85-2.19c-2-.15-4.09-.27-6.13-.4-2.2-.14-4.4-.32-6.6-.43s-4.63-.21-6.94-.25c-3.12-.06-6.24-.06-9.37-.08s-6.2,0-9.3,0-6.07-.2-9.1-.31l-.63-.06h-2.24l-.43.06c-1.07.07-2.14.12-3.21.2a34.82,34.82,0,0,0-5.65,1,63.22,63.22,0,0,0-7.8,2.62c-3.79,1.53-7.48,3.28-11.13,5.1-1.54.76-3,1.57-4.6,2.31-2,1-4.08,1.86-6.09,2.84a76.48,76.48,0,0,0-10.79,6.38,49.21,49.21,0,0,0-5,4c-.66.62-1.28,1.27-1.92,1.9a.65.65,0,0,1-.63.26,26.07,26.07,0,0,1-5.12-1.55,3.52,3.52,0,0,1-.88-.65c-.27-.25-.45-.58-.72-.81a7.81,7.81,0,0,0-1.36-1,1.14,1.14,0,0,0-1.56.42l-.06.12a3.32,3.32,0,0,0-.25,1.12v1.36H239a.91.91,0,0,0-1,.81.61.61,0,0,0,0,.19,3.82,3.82,0,0,0,.23,1,6.77,6.77,0,0,0,1.52,2.32,24.7,24.7,0,0,1,2.73,3.39,6.08,6.08,0,0,0,.9,1,6.59,6.59,0,0,0,3.39,1.62,1.87,1.87,0,0,1,1.41.72.62.62,0,0,1,.08.33c0,.4,0,.81,0,1.21.12.9.28,1.8.46,2.69a27.44,27.44,0,0,1,.81,4.68,4.19,4.19,0,0,1-.82,3,1.7,1.7,0,0,1-1.15.72,1.52,1.52,0,0,0-1.51,1.4c0,.21-.14.3-.37.29a1.44,1.44,0,0,0-1.34.65,1.08,1.08,0,0,1-1,.42A9.89,9.89,0,0,1,242,692c-1.06-.16-1.15.29-.94,1.09s.49,1.6.72,2.4a3.5,3.5,0,0,1,.13.85c0,.88-.07,1.75,0,2.62a2.57,2.57,0,0,0,2.48,2.66,2.68,2.68,0,0,0,.4,0,1.71,1.71,0,0,1,1.12.32,3.52,3.52,0,0,1,1.39,1.42c-.23.19-.47.37-.69.56a.61.61,0,0,0-.25.81.74.74,0,0,0,.16.19,4.71,4.71,0,0,0,3,1.52,9.61,9.61,0,0,0,2.62-.22,8.86,8.86,0,0,1,4.37.18,29.17,29.17,0,0,0,8,1.61,22.25,22.25,0,0,0,4-.18,17,17,0,0,0,5.32-1.59,3.19,3.19,0,0,1,2.65-.13,25.27,25.27,0,0,1,2.32,1.18,3.8,3.8,0,0,0,2.93.56c.61-.17.85,0,1.23.5a6.78,6.78,0,0,1,1,3.8v3a26.25,26.25,0,0,0,.25,2.75,2.07,2.07,0,0,1,.06.61c-.41,1.52-.83,3-1.3,4.54a5.8,5.8,0,0,1-2,3.06,4.12,4.12,0,0,0-.93,1.18c-.19.34-.36.7-.54,1.06a12.09,12.09,0,0,1-2.05,3,7,7,0,0,0,1,.47,8.79,8.79,0,0,0,6.15-.64,2.13,2.13,0,0,1,1.71-.22.93.93,0,0,0,1.15-.45,3.25,3.25,0,0,0,.33-.57c.18-.56.36-1.12.49-1.69.26-1.12.49-2.25.7-3.38a14.74,14.74,0,0,1,1.72-4.91,9.58,9.58,0,0,0,1.19-2.65c.09-.38.14-.76.21-1.15h.14a1.76,1.76,0,0,1,1.54,1.24c.21.57.35,1.17.52,1.76a4.49,4.49,0,0,0,1.5,2.48,4.74,4.74,0,0,1,1.05,1,5.94,5.94,0,0,0,4.26,2.65.72.72,0,0,1,.24.14,6.76,6.76,0,0,0,.7.49c1,.54,2.07,1.07,3.11,1.59a.24.24,0,0,0,.28-.06,3.07,3.07,0,0,0,.49-.74,4.62,4.62,0,0,0-.78-4.57,7.87,7.87,0,0,0-1-1l.37-.17c.33-.09.66-.15,1-.26a.65.65,0,0,0,.46-.8.61.61,0,0,0-.05-.12,2.78,2.78,0,0,0-1.57-1.42c-.47-.18-1-.29-1.42-.46a.71.71,0,0,1-.3-.27,9.54,9.54,0,0,0-.8-1.09,11.19,11.19,0,0,0-1.26-.91.92.92,0,0,1-.45-.69,2.17,2.17,0,0,1,1-2.17c.45-.3.91-.59,1.37-.86a7.52,7.52,0,0,0,2.83-2.77,2.57,2.57,0,0,1,1.18-1.08,18.2,18.2,0,0,0,4.69-3.22,1.46,1.46,0,0,1,.72-.44c.49-.08,1-.21,1.46-.26a28.94,28.94,0,0,1,5.66.07c1.38.14,2.76.32,4.13.49,1.8.21,3.6.45,5.4.65,1.59.17,3.18.33,4.78.42a40,40,0,0,0,5.79,0,26.31,26.31,0,0,0,4.66-.75,43,43,0,0,1,9-1.5,25.38,25.38,0,0,1,6.68.46,8.72,8.72,0,0,1,2.87,1.06.52.52,0,0,1,.27.45c.14,1.35.28,2.7.46,4a25.64,25.64,0,0,1,.42,5.1,5.53,5.53,0,0,1-.69,2.48c-1.29,2.24-2.57,4.48-3.83,6.74a11.24,11.24,0,0,0-1.37,3.39,2.25,2.25,0,0,1-.07.52c-.4.81-.81,1.61-1.25,2.39-.22.39-.51.74-.8,1.15,1,.15,1.89.31,2.81.43a10.62,10.62,0,0,0,3.73,0,3.06,3.06,0,0,0,2.44-1.9h0c.21.14.4.3.61.42a1,1,0,0,0,1.36-.38,1,1,0,0,0,.13-.52,11.69,11.69,0,0,1,.11-1.77,15.64,15.64,0,0,1,1.13-4.51,18.9,18.9,0,0,1,4.8-6.53,3.34,3.34,0,0,1,1.27-.58l1-.29a2,2,0,0,0,1.41-1.11,16,16,0,0,0,.73-2c.16-.61.2-1.26.3-1.9a2.45,2.45,0,0,1,2.07.93c.26.37.45.79.72,1.16s.69.84,1.05,1.26a4.74,4.74,0,0,1,.66.82,12,12,0,0,1,.95,4.66c.07,1,0,2,0,3,0,1.16,0,2.32.07,3.47a2.12,2.12,0,0,1-.24,1.21c-.45.82-.92,1.62-1.38,2.43-.37.63-.32.77.42.89a12.24,12.24,0,0,0,5.35-.27,3.46,3.46,0,0,0,2.67-2.09c.23.09.44.19.67.26a.71.71,0,0,0,.88-.49.5.5,0,0,0,0-.12,3.82,3.82,0,0,0-.33-2,23.92,23.92,0,0,1-1.94-6.47,7.83,7.83,0,0,1,1.55-6A1.62,1.62,0,0,0,391,712a.54.54,0,0,1,.13-.54,2.87,2.87,0,0,0,.57-2.57,12.36,12.36,0,0,0-.9-2,10.82,10.82,0,0,1-1.4-3.41.89.89,0,0,1,0-.58c1.23-2.1,2.49-4.18,3.73-6.28a25.48,25.48,0,0,0,2.73-5.54c.6-2,1.08-4,1.66-5.91a35.46,35.46,0,0,0,1.4-9.32,9.75,9.75,0,0,0,5.42,1.21c.19.24.39.47.6.7a11.81,11.81,0,0,0,4.75,3.08,10.52,10.52,0,0,0,10.56-2,9.47,9.47,0,0,0,2.66-9.64A1.93,1.93,0,0,0,420.71,667.69Zm-12.61,3.56c-.15.14-.3.28-.46.41l-.1.08-.32.21a9.48,9.48,0,0,1-1,.52,3.78,3.78,0,0,1-.17-.35,12.63,12.63,0,0,1-.76-2.77,9.31,9.31,0,0,1,0-2.11,6.77,6.77,0,0,1,.35-1.32,4.23,4.23,0,0,1,.25-.47,1.27,1.27,0,0,1,.13-.19l.07-.08.28-.28a2.88,2.88,0,0,1,.38-.22,2.42,2.42,0,0,1,.36-.1h.47a4.24,4.24,0,0,1,.61.17,2.87,2.87,0,0,1,.48.28l.1.06.2.18a2.44,2.44,0,0,1,.27.29,3.6,3.6,0,0,1,.31.54,5.09,5.09,0,0,1,.23.85,7,7,0,0,1,0,1.12,8,8,0,0,1-.35,1.27,7.19,7.19,0,0,1-.66,1.14l-.11.15-.12.14A4.9,4.9,0,0,1,408.1,671.25Z" transform="translate(-21 -1.41)"/></svg>